<svg id="Layer_1" data-name="Layer 1" xmlns="http://www.w3.org/2000/svg" viewBox="0 0 338.8 61.47"><defs><style>.cls-1{fill:#ac6476;}.cls-2{fill:#65bbb4;}.cls-3{opacity:0.7;}.cls-4{fill:#f2bab2;}.cls-5{fill:#bf9eb3;}</style></defs><title>ConGratZ logo</title><path class="cls-1" d="M133.6,219.82a11.84,11.84,0,0,1-5-5.15,17.87,17.87,0,0,1-1.73-8.18V195.37a17.88,17.88,0,0,1,1.73-8.19,11.94,11.94,0,0,1,5-5.17,16.47,16.47,0,0,1,7.91-1.78,14,14,0,0,1,6.83,1.65,13.31,13.31,0,0,1,5,4.78,20.76,20.76,0,0,1,2.72,7.56h-7.92a10.36,10.36,0,0,0-1.38-3.43,6.67,6.67,0,0,0-2.26-2.17,5.9,5.9,0,0,0-3-.75,7.1,7.1,0,0,0-3.65.88,5.69,5.69,0,0,0-2.3,2.56,9.45,9.45,0,0,0-.79,4.06v11.12a9.36,9.36,0,0,0,.79,4,5.77,5.77,0,0,0,2.3,2.55,7.2,7.2,0,0,0,3.65.88,6.13,6.13,0,0,0,3-.74,6.29,6.29,0,0,0,2.26-2.16,10.13,10.13,0,0,0,1.34-3.46H156a21.13,21.13,0,0,1-2.75,7.57,13.49,13.49,0,0,1-5,4.78,14,14,0,0,1-6.82,1.64A16.47,16.47,0,0,1,133.6,219.82Z" transform="translate(-22.1 -169)"/><path class="cls-1" d="M167.34,220.12a9.93,9.93,0,0,1-4.27-4.31,14.76,14.76,0,0,1-1.46-6.81v-4.72a14.44,14.44,0,0,1,1.46-6.73,9.87,9.87,0,0,1,4.27-4.26,16.36,16.36,0,0,1,13.51,0,9.87,9.87,0,0,1,4.27,4.26,14.32,14.32,0,0,1,1.46,6.73v4.8a14.39,14.39,0,0,1-1.46,6.76,10,10,0,0,1-4.27,4.28,16.26,16.26,0,0,1-13.51,0Zm10.32-7.24a5.29,5.29,0,0,0,1.29-3.8v-4.8a5.2,5.2,0,0,0-1.29-3.76,4.74,4.74,0,0,0-3.59-1.34,4.68,4.68,0,0,0-3.56,1.34,5.28,5.28,0,0,0-1.26,3.76v4.8a5.36,5.36,0,0,0,1.25,3.8,4.64,4.64,0,0,0,3.57,1.35A4.7,4.7,0,0,0,177.66,212.88Z" transform="translate(-22.1 -169)"/><path class="cls-1" d="M193.55,192.24h7.64v28.93h-7.64Zm16.72,11.4a4.36,4.36,0,0,0-1.21-3.29,4.75,4.75,0,0,0-3.44-1.17,4.4,4.4,0,0,0-3.28,1.19,4.57,4.57,0,0,0-1.15,3.33l-.59-6.41a10.89,10.89,0,0,1,3.14-4.1,7.43,7.43,0,0,1,4.58-1.36,8.59,8.59,0,0,1,7.08,3.08c1.68,2.05,2.51,5,2.51,8.71v17.55h-7.64Z" transform="translate(-22.1 -169)"/><path class="cls-1" d="M254.81,198.51v7.92a16.72,16.72,0,0,1-1.82,8,12.93,12.93,0,0,1-5.17,5.32,15.47,15.47,0,0,1-7.75,1.88,16.66,16.66,0,0,1-7.82-1.77,12.64,12.64,0,0,1-5.24-5,14.84,14.84,0,0,1-1.85-7.5V195.37a16.74,16.74,0,0,1,1.82-8,13,13,0,0,1,5.17-5.31,15.6,15.6,0,0,1,7.75-1.88,15.12,15.12,0,0,1,6.69,1.49,14,14,0,0,1,5.12,4.22,15.57,15.57,0,0,1,2.77,6.33h-8.25a5.38,5.38,0,0,0-1.38-2.21,6.4,6.4,0,0,0-2.26-1.43,7.66,7.66,0,0,0-2.69-.48,7,7,0,0,0-3.58.89,6.11,6.11,0,0,0-2.4,2.53,8.25,8.25,0,0,0-.85,3.8v11.95a6.38,6.38,0,0,0,.87,3.35,5.71,5.71,0,0,0,2.45,2.23,8.27,8.27,0,0,0,3.68.78,7.46,7.46,0,0,0,3.61-.85,5.79,5.79,0,0,0,2.38-2.47,8.18,8.18,0,0,0,.84-3.82v-.67h-6.13v-7.36Z" transform="translate(-22.1 -169)"/><path class="cls-1" d="M262.34,192.24h8.19v28.93h-8.19Zm14.91,7.22a5.89,5.89,0,0,0-1.87-.28,4.46,4.46,0,0,0-3.58,1.49,6.25,6.25,0,0,0-1.27,4.14l-.58-7.52a10.29,10.29,0,0,1,3.11-4,6.79,6.79,0,0,1,4.19-1.43,9,9,0,0,1,3.28.57,7.27,7.27,0,0,1,2.55,1.68l-4.46,6.22A3.6,3.6,0,0,0,277.25,199.46Z" transform="translate(-22.1 -169)"/><path class="cls-1" d="M287.61,219.38c-1.54-1.48-2.3-3.72-2.3-6.73s.86-5,2.57-6.44,4.3-2.15,7.74-2.15h7.25l.39,5.83h-7.61a4.12,4.12,0,0,0-2.6.68,2.51,2.51,0,0,0-.86,2.08,2.31,2.31,0,0,0,1.09,2.1,6.24,6.24,0,0,0,3.29.68,11.36,11.36,0,0,0,4.55-.69,2.29,2.29,0,0,0,1.5-2.18l.58,4.21a4,4,0,0,1-1.44,2.65,8.28,8.28,0,0,1-3.17,1.63,14.8,14.8,0,0,1-4,.54Q289.91,221.59,287.61,219.38Zm15-16.55a3.78,3.78,0,0,0-1.34-3.09,5.92,5.92,0,0,0-3.79-1.09,10.19,10.19,0,0,0-3.21.53,9.52,9.52,0,0,0-2.81,1.48L286.73,196a11.3,11.3,0,0,1,4.57-3.08,17.15,17.15,0,0,1,6.3-1.1,15,15,0,0,1,6.46,1.26,9.17,9.17,0,0,1,4.09,3.68,11.34,11.34,0,0,1,1.4,5.81v18.59h-6.93Z" transform="translate(-22.1 -169)"/><path class="cls-1" d="M314.85,192.24H329v6.53H314.85Zm4.75,27.14a8.23,8.23,0,0,1-1.77-5.73V183.83h7.64v27.92a2.71,2.71,0,0,0,.42,1.63,1.41,1.41,0,0,0,1.23.58H329v7.35h-3.85C322.64,221.31,320.78,220.67,319.6,219.38Z" transform="translate(-22.1 -169)"/><path class="cls-2" d="M360.34,187.51l-16.67,26.31H360.9v7.35H334.58v-6.85L351.25,188H335.09v-7.36h25.25Z" transform="translate(-22.1 -169)"/><g class="cls-3"><rect class="cls-4" x="57.05" y="173.13" width="53.21" height="53.21" rx="16.64" transform="translate(-138.83 -51.34) rotate(-45)"/></g><g class="cls-3"><rect class="cls-5" x="26.23" y="173.13" width="53.21" height="53.21" rx="16.64" transform="translate(-147.86 -73.14) rotate(-45)"/></g></svg>