<svg id="Layer_1" data-name="Layer 1" xmlns="http://www.w3.org/2000/svg" xmlns:xlink="http://www.w3.org/1999/xlink" viewBox="0 0 788 953"><defs><style>.cls-1{fill:none;}.cls-2{fill:#b5dcd8;}.cls-3{fill:#828282;opacity:0.2;}.cls-4{fill:#fff;}.cls-5{fill:#af6b68;}.cls-6{fill:#136354;}.cls-7{fill:#3d8f7e;}.cls-8{fill:#51a295;}.cls-9{isolation:isolate;}.cls-10{clip-path:url(#clip-path);}.cls-11{fill:#65bbb4;}.cls-12{fill:#d6d8d8;}.cls-13{fill:#3f446b;}</style><clipPath id="clip-path" transform="translate(-565.67 -63.3)"><polygon class="cls-1" points="856.33 547.78 1052.26 433.92 1292.84 572.82 1096.9 686.68 856.33 547.78"/></clipPath></defs><title>contact-art</title><rect class="cls-2" width="788" height="953"/><ellipse class="cls-3" cx="208.71" cy="389.18" rx="94.97" ry="43.26"/><path class="cls-4" d="M825,329c0-21-33.54-38-74.92-38s-74.92,17-74.92,38V447.2h.12a18.66,18.66,0,0,0-.12,2.11c0,21,33.54,38,74.92,38s74.92-17,74.92-38c0-.7,0-1.41-.12-2.11H825Z" transform="translate(-565.67 -63.3)"/><ellipse class="cls-5" cx="184.56" cy="269.94" rx="66.59" ry="33.77"/><path class="cls-6" d="M763.31,261.54c2.44,28.75-12.81,60.27-24.23,59.83-14.14-.55-22.58-50.16-24.23-59.83a221.93,221.93,0,0,1-.76-68.9C720.32,196.25,759.79,220,763.31,261.54Z" transform="translate(-565.67 -63.3)"/><path class="cls-7" d="M736.81,280.48c14.22,39.73,22,59.36,14.39,66.63-7.09,6.8-24,1.92-34.5-4.73-5.64-3.58-20.06-14.46-27.59-55.09-3.89-20.93-7.29-57,5.3-103a78,78,0,0,0,6.81,31c5.36,11.76,11.17,16.18,18.93,28C727.59,254.72,730.8,263.68,736.81,280.48Z" transform="translate(-565.67 -63.3)"/><path class="cls-7" d="M774.67,280.48C747.05,323.27,721.07,334,725,343.76c4.15,10.29,39.06,12.72,62.85-3.45,23.11-15.7,27.75-43.53,31.77-67.69,2.95-17.64,5.77-50.68-7.59-91.86a251.26,251.26,0,0,1-37.35,99.72Z" transform="translate(-565.67 -63.3)"/><path class="cls-7" d="M792.09,257c4.58,38.72-17.41,83-33.7,82.54-16.12-.44-33.22-44.87-30.67-82.54,1.14-16.67,6.31-32.06,16.66-62.85,6-18,11.82-32.57,15.9-42.4,2.89,11.26,7.37,27.84,13.63,47.7C786.1,238.06,790.39,242.63,792.09,257Z" transform="translate(-565.67 -63.3)"/><path class="cls-8" d="M799.66,296.38c-4.28,27.7-31.1,55.72-48.46,50.73-15-4.33-23.78-33.67-17.42-55.28,4.37-14.82,13.67-18.65,26.5-36.34a144.64,144.64,0,0,0,23.48-52.25c3.36,15.8,7.51,35.8,12.11,59.06C799.92,282.74,800.89,288.43,799.66,296.38Z" transform="translate(-565.67 -63.3)"/><g class="cls-9"><g class="cls-10"><path class="cls-11" d="M1228.73,593.86l-9.45,5.49,21.68,3.59h0q-6-4.48-12.24-9.07m-212.6-122.74q-7.92-3.62-15.69-7.06h0q3.12,6.29,6.25,12.55l9.45-5.49" transform="translate(-565.67 -63.3)"/><path class="cls-4" d="M1053,542.11l5.4-3.13,16.42,9.48-5.39,3.13L1053,542.11m21.72,12.54,5.39-3.13,16.42,9.48-5.39,3.13-16.42-9.48m-39.91-34.5,5.4-3.13,99,57.19-5.39,3.14-99.06-57.2m-14.29-32.71,5.4-3.14L1082.6,517l-5.4,3.13-56.68-32.72m63,36.39,5.39-3.13,16.43,9.48-5.4,3.13-16.42-9.48m21.71,12.54,5.4-3.14,16.42,9.48-5.4,3.14-16.42-9.48m23.84,13.76,5.4-3.13,47.67,27.52-5.39,3.14-47.68-27.53m55.47,31L1190,578l16.42,9.48-5.39,3.13-16.42-9.48M1030.94,482l5.39-3.13,23.84,13.76-5.4,3.13L1030.94,482m34.43,19.88,5.39-3.13,99.06,57.18-5.4,3.14-99.05-57.19m106.47,61.47,5.39-3.13,38.15,22-5.4,3.13-38.14-22m-129.67-87.88,5.4-3.13,105.94,61.16-5.4,3.14-105.94-61.17m122.37,70.65,5.39-3.14,56.68,32.73-5.39,3.13-56.68-32.72M1057.9,467.37l5.4-3.13,55.1,31.81-5.39,3.14-55.11-31.82m195,82.39L1092.2,457c-14.33-8.28-37.49-8.28-51.72,0l-24.35,14.15-9.45,5.49,7.74,15.51,2.59-1.5L1123,551.78l-5.39,3.14-100.87-58.24,4.74,9.5,8.18,4.73-4.51,2.62,4.35,8.74,22.59,13-5.39,3.13-12.82-7.4,20.46,41.05,70.94,11.72-26.67-15.4,5.39-3.13,36.44,21,12.64,2.09-11.74-6.78,5.39-3.13,21.51,12.41,16.42,2.72L1134,564.4l5.4-3.14L1196.05,594l-2,1.19,25.28,4.17,9.45-5.49,24.34-14.14c14.24-8.28,14.16-21.69-.17-30" transform="translate(-565.67 -63.3)"/><polyline class="cls-12" points="552.74 432.76 497.63 400.94 492.24 404.07 547.34 435.89 552.74 432.76"/><polyline class="cls-12" points="587.84 470.2 481.9 409.04 476.51 412.17 582.45 473.34 587.84 470.2"/><polyline class="cls-12" points="660.94 512.41 604.26 479.69 598.87 482.82 655.55 515.54 660.94 512.41"/><polyline class="cls-12" points="516.93 453.73 460.25 421.01 454.85 424.14 511.53 456.87 516.93 453.73"/><polyline class="cls-12" points="539.71 466.88 523.29 457.4 517.89 460.54 534.31 470.02 539.71 466.88"/><polyline class="cls-12" points="561.42 479.42 545 469.94 539.6 473.07 556.03 482.55 561.42 479.42"/><polyline class="cls-12" points="640.72 524.16 624.3 514.68 618.91 517.82 635.33 527.3 640.72 524.16"/><polyline class="cls-12" points="616.52 511.23 568.84 483.7 563.45 486.84 611.12 514.36 616.52 511.23"/><polyline class="cls-12" points="494.5 429.33 470.67 415.57 465.27 418.7 489.11 432.46 494.5 429.33"/><polyline class="cls-12" points="649.71 518.94 611.57 496.92 606.18 500.05 644.32 522.07 649.71 518.94"/><polyline class="cls-12" points="604.15 492.64 505.1 435.45 499.71 438.58 598.76 495.77 604.15 492.64"/><path class="cls-12" d="M1123,551.78,1017,490.62l-2.59,1.5,2.27,4.56,100.87,58.24,5.39-3.14" transform="translate(-565.67 -63.3)"/><path class="cls-12" d="M1196.05,594l-56.67-32.73-5.4,3.14,50.63,29.23,9.39,1.55,2-1.19" transform="translate(-565.67 -63.3)"/><path class="cls-12" d="M1052,535.31l-22.59-13,4.38,8.77,12.82,7.4,5.39-3.13" transform="translate(-565.67 -63.3)"/><polyline class="cls-12" points="509.15 485.16 492.73 475.68 487.34 478.82 503.76 488.3 509.15 485.16"/><polyline class="cls-12" points="530.87 497.7 514.44 488.22 509.05 491.35 525.47 500.83 530.87 497.7"/><path class="cls-12" d="M1140.39,586.32l-36.44-21-5.39,3.13,26.67,15.4,15.16,2.51" transform="translate(-565.67 -63.3)"/><path class="cls-12" d="M1029.61,510.91l-8.18-4.73q1.83,3.68,3.67,7.35l4.51-2.62" transform="translate(-565.67 -63.3)"/><path class="cls-12" d="M1168.19,590.91l-21.51-12.41-5.39,3.13,11.74,6.78,15.16,2.5" transform="translate(-565.67 -63.3)"/><polyline class="cls-12" points="573.6 510.92 474.54 453.73 469.15 456.86 568.21 514.05 573.6 510.92"/><path class="cls-7" d="M1089.82,682.59l-.07,0L863.47,551.91h0l226.28,130.65.06,0M863.29,551.8l.15.09-.15-.09M1090,682.68l0,0,0,0m-229-136.62c-1,1.86-.49,4,2.35,5.74-2.6-1.58-3.38-3.79-2.35-5.74m242.94,136.56a13.58,13.58,0,0,1-4,1.39,13.15,13.15,0,0,0,4-1.39M863.63,543.54l-.33.19.13-.07.2-.12M1241,602.94h0l-21.68-3.59L1194,595.18l-9.39-1.55-16.42-2.72-15.16-2.5-12.64-2.09-15.16-2.51-70.94-11.72,52.23,104.73c1.12,2.25,0,4.25-2.32,5.62L1241,602.94" transform="translate(-565.67 -63.3)"/><path class="cls-13" d="M1000.42,464.05,863.63,543.54l-.2.12-.13.07a6.2,6.2,0,0,0-2.36,2.33c-1,2-.25,4.16,2.35,5.74h0l.15.09,0,0,226.28,130.64.07,0,.12.07,0,0a15.31,15.31,0,0,0,9.87,1.33,13.58,13.58,0,0,0,4-1.39l.32-.18c2.27-1.37,3.44-3.37,2.32-5.62l-52.23-104.73L1033.83,531l-4.38-8.77-4.35-8.74q-1.84-3.67-3.67-7.35l-4.74-9.5-2.27-4.56-7.74-15.51q-3.12-6.27-6.25-12.55h0" transform="translate(-565.67 -63.3)"/></g></g><path class="cls-4" d="M734.45,785.81h-2.53V760.25h2.53Z" transform="translate(-565.67 -63.3)"/><path class="cls-4" d="M739.54,767.56h9.13v2.18h-9.13Zm1.94-2.48a5.44,5.44,0,0,1,1-3.63,4,4,0,0,1,3.16-1.2h3v2.35H746.1a1.93,1.93,0,0,0-1.57.61,2.75,2.75,0,0,0-.52,1.84v20.76h-2.53Z" transform="translate(-565.67 -63.3)"/><path class="cls-4" d="M760.09,767.56h2.61l6,16.93-1.32,2.81Zm16.16,0-7.77,22.52a5.22,5.22,0,0,1-1.11,2,3.85,3.85,0,0,1-1.69,1.05,8.21,8.21,0,0,1-2.46.32h-.72V791h.72a3.55,3.55,0,0,0,2.24-.65,4.89,4.89,0,0,0,1.44-2.2l6.75-20.62Z" transform="translate(-565.67 -63.3)"/><path class="cls-4" d="M782,785.14a6.12,6.12,0,0,1-2.58-2.72,9.58,9.58,0,0,1-.89-4.3v-3a9.38,9.38,0,0,1,.89-4.24,6.05,6.05,0,0,1,2.58-2.69,9.42,9.42,0,0,1,8.12,0,6.08,6.08,0,0,1,2.57,2.69,9.38,9.38,0,0,1,.89,4.24v3a9.44,9.44,0,0,1-.89,4.26,6.16,6.16,0,0,1-2.57,2.7,9.33,9.33,0,0,1-8.12,0Zm7.74-2.88a5.88,5.88,0,0,0,1.31-4.08v-3a5.85,5.85,0,0,0-1.31-4.06,4.75,4.75,0,0,0-3.7-1.44,4.68,4.68,0,0,0-3.67,1.44,5.85,5.85,0,0,0-1.31,4.06v3a5.88,5.88,0,0,0,1.31,4.08,4.65,4.65,0,0,0,3.67,1.45A4.72,4.72,0,0,0,789.74,782.26Z" transform="translate(-565.67 -63.3)"/><path class="cls-4" d="M800.77,778.65a5.26,5.26,0,0,0,1.25,3.74,4.62,4.62,0,0,0,3.53,1.32,4.81,4.81,0,0,0,3.51-1.21,4.6,4.6,0,0,0,1.24-3.43l.24,3.82a5.49,5.49,0,0,1-2.2,2.27,7.41,7.41,0,0,1-3.79.91,5.8,5.8,0,0,1-4.67-1.94,8.28,8.28,0,0,1-1.64-5.48V767.56h2.53Zm9.53-11.09h2.51v18.25H810.3Z" transform="translate(-565.67 -63.3)"/><path class="cls-4" d="M827.93,760.25h2.53v25.56h-2.53Zm12.13,14.5a5.22,5.22,0,0,0-1.28-3.76,4.74,4.74,0,0,0-3.59-1.34,4.84,4.84,0,0,0-3.49,1.19,4.42,4.42,0,0,0-1.24,3.36l-.37-3.51a5.85,5.85,0,0,1,2.57-2.59,8.08,8.08,0,0,1,3.71-.8,5.63,5.63,0,0,1,4.59,1.94,8.27,8.27,0,0,1,1.63,5.49v11.08h-2.53Z" transform="translate(-565.67 -63.3)"/><path class="cls-4" d="M848.92,784.59a5.1,5.1,0,0,1-1.76-4.16,5,5,0,0,1,1.61-4,6.61,6.61,0,0,1,4.54-1.42h6.07l.24,2.36h-6.29a4.11,4.11,0,0,0-2.72.8,3.06,3.06,0,0,0,.25,4.66,5.87,5.87,0,0,0,3.4.85,11,11,0,0,0,3.66-.48c.86-.31,1.3-.76,1.3-1.33l.37,2.39a5,5,0,0,1-1.4,1,7.7,7.7,0,0,1-2,.63,12.67,12.67,0,0,1-2.37.21A7.44,7.44,0,0,1,848.92,784.59Zm10.3-10.35A4.75,4.75,0,0,0,858,770.8a4.49,4.49,0,0,0-3.37-1.22,7.91,7.91,0,0,0-2.54.42,7,7,0,0,0-2.22,1.2l-1.85-1.27a6.92,6.92,0,0,1,2.74-1.94,9.93,9.93,0,0,1,3.77-.69,8.55,8.55,0,0,1,3.88.8,5.48,5.48,0,0,1,2.46,2.32,7.34,7.34,0,0,1,.85,3.66v11.73h-2.53Z" transform="translate(-565.67 -63.3)"/><path class="cls-4" d="M878.46,767.56h2.69L874,785.81h-2l-7.2-18.25h2.69l5.52,15Z" transform="translate(-565.67 -63.3)"/><path class="cls-4" d="M887.46,785.11a6.45,6.45,0,0,1-2.73-2.79,9.58,9.58,0,0,1-.94-4.42v-2.06a10.6,10.6,0,0,1,.91-4.62,6.49,6.49,0,0,1,2.62-2.92,8.12,8.12,0,0,1,4.15-1,7.35,7.35,0,0,1,3.91,1,6.27,6.27,0,0,1,2.46,2.87,11,11,0,0,1,.86,4.55v2.09H885.51V775.5h10.83v-.17a6.23,6.23,0,0,0-1.27-4.19,4.49,4.49,0,0,0-3.6-1.49,4.94,4.94,0,0,0-3.93,1.57,6.43,6.43,0,0,0-1.39,4.43V778a5.81,5.81,0,0,0,1.47,4.24,5.61,5.61,0,0,0,4.17,1.5,6.33,6.33,0,0,0,2.5-.52,6.92,6.92,0,0,0,2.21-1.5l1.72,1.65a9.82,9.82,0,0,1-3,2,8.8,8.8,0,0,1-3.41.71A9.08,9.08,0,0,1,887.46,785.11Z" transform="translate(-565.67 -63.3)"/><path class="cls-4" d="M915.66,785.2a5.47,5.47,0,0,1-2.16-2.52,9.75,9.75,0,0,1-.74-4v-4a10.1,10.1,0,0,1,.72-4,5.42,5.42,0,0,1,2.1-2.54,6.1,6.1,0,0,1,3.31-.87,8.16,8.16,0,0,1,3.67.78,5.73,5.73,0,0,1,2.52,2.56l-.37,3.51a4.88,4.88,0,0,0-.55-2.27,4.89,4.89,0,0,0-7.62-1,5.6,5.6,0,0,0-1.25,3.89v4a5.49,5.49,0,0,0,1.25,3.83,4.54,4.54,0,0,0,3.53,1.36,4.38,4.38,0,0,0,2.46-.69,4.47,4.47,0,0,0,1.62-1.78,4.9,4.9,0,0,0,.56-2.29l.25,3.81a4.44,4.44,0,0,1-2.18,2.4,8.37,8.37,0,0,1-3.71.73A6.43,6.43,0,0,1,915.66,785.2Zm9.05-17.64h2.53v25.66h-2.53Z" transform="translate(-565.67 -63.3)"/><path class="cls-4" d="M935.22,778.65a5.26,5.26,0,0,0,1.25,3.74,4.63,4.63,0,0,0,3.54,1.32,4.77,4.77,0,0,0,3.5-1.21,4.57,4.57,0,0,0,1.24-3.43l.25,3.82a5.52,5.52,0,0,1-2.21,2.27,7.38,7.38,0,0,1-3.79.91,5.77,5.77,0,0,1-4.66-1.94,8.23,8.23,0,0,1-1.65-5.48V767.56h2.53Zm9.53-11.09h2.52v18.25h-2.52Z" transform="translate(-565.67 -63.3)"/><path class="cls-4" d="M955.86,785.11a6.4,6.4,0,0,1-2.73-2.79,9.58,9.58,0,0,1-.94-4.42v-2.06a10.75,10.75,0,0,1,.9-4.62,6.51,6.51,0,0,1,2.63-2.92,8.1,8.1,0,0,1,4.15-1,7.34,7.34,0,0,1,3.9,1,6.29,6.29,0,0,1,2.47,2.87,11,11,0,0,1,.85,4.55v2.09H953.91V775.5h10.83v-.17a6.23,6.23,0,0,0-1.28-4.19,4.47,4.47,0,0,0-3.59-1.49,5,5,0,0,0-3.94,1.57,6.48,6.48,0,0,0-1.39,4.43V778a5.82,5.82,0,0,0,1.48,4.24,5.57,5.57,0,0,0,4.17,1.5,6.37,6.37,0,0,0,2.5-.52,7,7,0,0,0,2.21-1.5l1.72,1.65a9.82,9.82,0,0,1-3,2,8.83,8.83,0,0,1-3.41.71A9.08,9.08,0,0,1,955.86,785.11Z" transform="translate(-565.67 -63.3)"/><path class="cls-4" d="M975.43,785.78a12,12,0,0,1-2.6-.85,9.57,9.57,0,0,1-2.13-1.36l1.46-1.77a13.16,13.16,0,0,0,3.09,1.55,9.31,9.31,0,0,0,3,.56,7.6,7.6,0,0,0,4.05-.9,2.83,2.83,0,0,0,1.44-2.53,2.23,2.23,0,0,0-.7-1.79,3.69,3.69,0,0,0-1.75-.81,24.81,24.81,0,0,0-2.93-.35l-.36,0c-.13,0-.25,0-.36,0h-.29a17.72,17.72,0,0,1-3-.53,4.19,4.19,0,0,1-2-1.32,4.24,4.24,0,0,1-.82-2.79,5.1,5.1,0,0,1,.86-3,5.25,5.25,0,0,1,2.49-1.88,10.61,10.61,0,0,1,4-.65,12.9,12.9,0,0,1,2.39.23,12.39,12.39,0,0,1,2.29.69,10.49,10.49,0,0,1,2,1.08L984.06,771a12.69,12.69,0,0,0-2.71-1.17,9.61,9.61,0,0,0-2.64-.41,6.36,6.36,0,0,0-3.57.86,2.76,2.76,0,0,0-1.26,2.43,2,2,0,0,0,.68,1.62,3.71,3.71,0,0,0,1.74.71,26.9,26.9,0,0,0,2.87.28h.4l.11,0a16.19,16.19,0,0,1,3.26.47,4.47,4.47,0,0,1,2.26,1.46,4.79,4.79,0,0,1,.91,3.15,5,5,0,0,1-.91,3,5.69,5.69,0,0,1-2.67,1.91,12.1,12.1,0,0,1-4.24.66A14.15,14.15,0,0,1,975.43,785.78Z" transform="translate(-565.67 -63.3)"/><path class="cls-4" d="M989.28,767.56h8.22v2.18h-8.22Zm2.91,17.11a5.45,5.45,0,0,1-1-3.61V762.25h2.53v18.84a2.8,2.8,0,0,0,.53,1.82,1.91,1.91,0,0,0,1.56.63h1.72v2.35h-2.07A4,4,0,0,1,992.19,784.67Z" transform="translate(-565.67 -63.3)"/><path class="cls-4" d="M1003,760.25h2.53v2.53H1003Zm0,7.31h2.53v18.25H1003Z" transform="translate(-565.67 -63.3)"/><path class="cls-4" d="M1014.4,785.14a6.12,6.12,0,0,1-2.58-2.72,9.58,9.58,0,0,1-.89-4.3v-3a9.38,9.38,0,0,1,.89-4.24,6.05,6.05,0,0,1,2.58-2.69,9.42,9.42,0,0,1,8.12,0,6.08,6.08,0,0,1,2.57,2.69,9.38,9.38,0,0,1,.89,4.24v3a9.44,9.44,0,0,1-.89,4.26,6.16,6.16,0,0,1-2.57,2.7,9.33,9.33,0,0,1-8.12,0Zm7.74-2.88a5.88,5.88,0,0,0,1.31-4.08v-3a5.85,5.85,0,0,0-1.31-4.06,4.75,4.75,0,0,0-3.7-1.44,4.68,4.68,0,0,0-3.67,1.44,5.85,5.85,0,0,0-1.31,4.06v3a5.88,5.88,0,0,0,1.31,4.08,4.65,4.65,0,0,0,3.67,1.45A4.72,4.72,0,0,0,1022.14,782.26Z" transform="translate(-565.67 -63.3)"/><path class="cls-4" d="M1031.08,767.56h2.53v18.25h-2.53Zm12.13,7.19a5.22,5.22,0,0,0-1.28-3.76,4.74,4.74,0,0,0-3.59-1.34,4.84,4.84,0,0,0-3.49,1.19,4.42,4.42,0,0,0-1.24,3.36l-.37-3.51a5.85,5.85,0,0,1,2.57-2.59,8.08,8.08,0,0,1,3.71-.8,5.63,5.63,0,0,1,4.59,1.94,8.27,8.27,0,0,1,1.63,5.49v11.08h-2.53Z" transform="translate(-565.67 -63.3)"/><path class="cls-4" d="M1054.6,785.78a12,12,0,0,1-2.6-.85,9.57,9.57,0,0,1-2.13-1.36l1.46-1.77a13.35,13.35,0,0,0,3.09,1.55,9.31,9.31,0,0,0,3,.56,7.6,7.6,0,0,0,4-.9,2.83,2.83,0,0,0,1.44-2.53,2.19,2.19,0,0,0-.7-1.79,3.69,3.69,0,0,0-1.75-.81,24.81,24.81,0,0,0-2.93-.35l-.36,0c-.13,0-.25,0-.36,0h-.28a17.68,17.68,0,0,1-3-.53,4.19,4.19,0,0,1-2-1.32,4.24,4.24,0,0,1-.81-2.79,5.09,5.09,0,0,1,.85-3A5.3,5.3,0,0,1,1054,768a10.65,10.65,0,0,1,4-.65,12.9,12.9,0,0,1,2.39.23,12.39,12.39,0,0,1,2.29.69,10.49,10.49,0,0,1,2,1.08l-1.46,1.74a12.69,12.69,0,0,0-2.71-1.17,9.55,9.55,0,0,0-2.64-.41,6.31,6.31,0,0,0-3.56.86,2.75,2.75,0,0,0-1.27,2.43,1.93,1.93,0,0,0,.69,1.62,3.62,3.62,0,0,0,1.73.71,27.17,27.17,0,0,0,2.87.28h.41l.1,0a16.08,16.08,0,0,1,3.26.47,4.47,4.47,0,0,1,2.26,1.46,4.79,4.79,0,0,1,.92,3.15,5,5,0,0,1-.92,3,5.69,5.69,0,0,1-2.67,1.91,12.06,12.06,0,0,1-4.24.66A14.15,14.15,0,0,1,1054.6,785.78Z" transform="translate(-565.67 -63.3)"/><path class="cls-4" d="M1082.46,785.14a6.18,6.18,0,0,1-2.58-2.72,9.59,9.59,0,0,1-.88-4.3v-3a9.38,9.38,0,0,1,.88-4.24,6.1,6.1,0,0,1,2.58-2.69,9.42,9.42,0,0,1,8.12,0,6.1,6.1,0,0,1,2.58,2.69,9.38,9.38,0,0,1,.88,4.24v3a9.44,9.44,0,0,1-.88,4.26,6.18,6.18,0,0,1-2.58,2.7,9.33,9.33,0,0,1-8.12,0Zm7.74-2.88a5.84,5.84,0,0,0,1.31-4.08v-3a5.8,5.8,0,0,0-1.31-4.06,5.43,5.43,0,0,0-7.37,0,5.84,5.84,0,0,0-1.3,4.06v3a5.88,5.88,0,0,0,1.3,4.08,5.41,5.41,0,0,0,7.37,0Z" transform="translate(-565.67 -63.3)"/><path class="cls-4" d="M1099.14,767.56h2.53v18.25h-2.53Zm9.33,2.39a6,6,0,0,0-2-.3,4.9,4.9,0,0,0-3.55,1.22,4.49,4.49,0,0,0-1.27,3.39l-.37-3.52a7.11,7.11,0,0,1,2.63-2.54,7.22,7.22,0,0,1,3.56-.9,6.7,6.7,0,0,1,2.26.36,5.13,5.13,0,0,1,1.77,1.06l-1.64,2.11A3.56,3.56,0,0,0,1108.47,770Z" transform="translate(-565.67 -63.3)"/><path class="cls-4" d="M1121.71,790.87h2a1.94,1.94,0,0,0,1.55-.64,2.68,2.68,0,0,0,.55-1.81V767.56h2.53v20.83a5.21,5.21,0,0,1-1.12,3.57,4,4,0,0,1-3.15,1.26h-2.36Zm4.1-30.62h2.56v2.53h-2.56Z" transform="translate(-565.67 -63.3)"/><path class="cls-4" d="M1136.35,778.65a5.26,5.26,0,0,0,1.25,3.74,4.62,4.62,0,0,0,3.53,1.32,4.78,4.78,0,0,0,3.51-1.21,4.57,4.57,0,0,0,1.24-3.43l.25,3.82a5.52,5.52,0,0,1-2.21,2.27,7.38,7.38,0,0,1-3.79.91,5.77,5.77,0,0,1-4.66-1.94,8.23,8.23,0,0,1-1.65-5.48V767.56h2.53Zm9.53-11.09h2.51v18.25h-2.51Z" transform="translate(-565.67 -63.3)"/><path class="cls-4" d="M1157.25,785.78a11.92,11.92,0,0,1-2.59-.85,9.57,9.57,0,0,1-2.13-1.36l1.45-1.77a13.42,13.42,0,0,0,3.1,1.55,9.26,9.26,0,0,0,3,.56,7.6,7.6,0,0,0,4.05-.9,2.82,2.82,0,0,0,1.43-2.53,2.22,2.22,0,0,0-.69-1.79,3.74,3.74,0,0,0-1.75-.81,24.76,24.76,0,0,0-2.94-.35c-.11,0-.23,0-.36,0l-.36,0h-.28a17.72,17.72,0,0,1-3-.53,4.14,4.14,0,0,1-2-1.32,4.18,4.18,0,0,1-.82-2.79,5.16,5.16,0,0,1,.85-3,5.28,5.28,0,0,1,2.5-1.88,10.61,10.61,0,0,1,4-.65,13,13,0,0,1,2.39.23,12.63,12.63,0,0,1,2.29.69,10.71,10.71,0,0,1,2,1.08l-1.46,1.74a12.4,12.4,0,0,0-2.7-1.17,9.61,9.61,0,0,0-2.64-.41,6.36,6.36,0,0,0-3.57.86,2.76,2.76,0,0,0-1.26,2.43,2,2,0,0,0,.68,1.62,3.71,3.71,0,0,0,1.73.71,27.41,27.41,0,0,0,2.88.28h.4l.11,0a16.19,16.19,0,0,1,3.26.47,4.47,4.47,0,0,1,2.26,1.46,4.79,4.79,0,0,1,.91,3.15,5,5,0,0,1-.91,3,5.69,5.69,0,0,1-2.67,1.91,12.14,12.14,0,0,1-4.24.66A14.25,14.25,0,0,1,1157.25,785.78Z" transform="translate(-565.67 -63.3)"/><path class="cls-4" d="M1171.11,767.56h8.22v2.18h-8.22Zm2.9,17.11a5.51,5.51,0,0,1-1-3.61V762.25h2.53v18.84a2.8,2.8,0,0,0,.52,1.82,2,2,0,0,0,1.57.63h1.72v2.35h-2.07A4,4,0,0,1,1174,784.67Z" transform="translate(-565.67 -63.3)"/><path class="cls-4" d="M733.85,810.76h2.69l4.29,14.78,5.08-14.78h1.44l5.08,14.78,4.29-14.78h2.69L753.61,829h-2.18l-4.8-13.66L741.83,829h-2.18Z" transform="translate(-565.67 -63.3)"/><path class="cls-4" d="M764.15,827.79a5.13,5.13,0,0,1-1.75-4.16,5,5,0,0,1,1.6-4,6.65,6.65,0,0,1,4.55-1.42h6.06l.25,2.36h-6.29a4.09,4.09,0,0,0-2.72.8,3.06,3.06,0,0,0,.25,4.66,5.87,5.87,0,0,0,3.4.85,10.9,10.9,0,0,0,3.65-.48c.87-.31,1.31-.76,1.31-1.33l.36,2.39a4.76,4.76,0,0,1-1.39,1,7.7,7.7,0,0,1-1.95.63,12.67,12.67,0,0,1-2.37.21A7.49,7.49,0,0,1,764.15,827.79Zm10.31-10.35a4.75,4.75,0,0,0-1.19-3.44,4.49,4.49,0,0,0-3.37-1.22,8,8,0,0,0-2.55.42,7,7,0,0,0-2.21,1.2l-1.85-1.27a6.85,6.85,0,0,1,2.74-1.94,9.89,9.89,0,0,1,3.77-.69,8.58,8.58,0,0,1,3.88.8,5.48,5.48,0,0,1,2.46,2.32,7.34,7.34,0,0,1,.85,3.66V829h-2.53Z" transform="translate(-565.67 -63.3)"/><path class="cls-4" d="M782.44,810.76H785V829h-2.53ZM794.56,818a5.22,5.22,0,0,0-1.27-3.76,4.74,4.74,0,0,0-3.59-1.34,4.84,4.84,0,0,0-3.49,1.19A4.42,4.42,0,0,0,785,817.4l-.37-3.51a5.88,5.88,0,0,1,2.56-2.59,8.14,8.14,0,0,1,3.71-.8,5.65,5.65,0,0,1,4.6,1.94,8.32,8.32,0,0,1,1.63,5.49V829h-2.54Z" transform="translate(-565.67 -63.3)"/><path class="cls-4" d="M801.14,810.76h8.23v2.18h-8.23Zm2.91,17.11a5.45,5.45,0,0,1-1-3.61V805.45h2.53v18.84a2.8,2.8,0,0,0,.53,1.82,1.91,1.91,0,0,0,1.56.63h1.73v2.35h-2.08A4,4,0,0,1,804.05,827.87Z" transform="translate(-565.67 -63.3)"/><path class="cls-4" d="M822.55,810.76h8.23v2.18h-8.23Zm2.91,17.11a5.45,5.45,0,0,1-1-3.61V805.45H827v18.84a2.8,2.8,0,0,0,.53,1.82,1.91,1.91,0,0,0,1.56.63h1.73v2.35H828.7A4,4,0,0,1,825.46,827.87Z" transform="translate(-565.67 -63.3)"/><path class="cls-4" d="M838.63,828.34a6.15,6.15,0,0,1-2.57-2.72,9.58,9.58,0,0,1-.89-4.3v-3a9.38,9.38,0,0,1,.89-4.24,6.08,6.08,0,0,1,2.57-2.69,9.42,9.42,0,0,1,8.12,0,6.05,6.05,0,0,1,2.58,2.69,9.38,9.38,0,0,1,.89,4.24v3a9.44,9.44,0,0,1-.89,4.26,6.13,6.13,0,0,1-2.58,2.7,9.33,9.33,0,0,1-8.12,0Zm7.75-2.88a5.88,5.88,0,0,0,1.31-4.08v-3a5.85,5.85,0,0,0-1.31-4.06,4.76,4.76,0,0,0-3.7-1.44,4.7,4.7,0,0,0-3.68,1.44,5.84,5.84,0,0,0-1.3,4.06v3a5.88,5.88,0,0,0,1.3,4.08,4.68,4.68,0,0,0,3.68,1.45A4.73,4.73,0,0,0,846.38,825.46Z" transform="translate(-565.67 -63.3)"/><path class="cls-4" d="M867.36,828.4a5.54,5.54,0,0,1-2.17-2.52,9.76,9.76,0,0,1-.73-4v-4a10.1,10.1,0,0,1,.72-4,5.42,5.42,0,0,1,2.1-2.54,6.07,6.07,0,0,1,3.31-.87,8.12,8.12,0,0,1,3.66.78,5.8,5.8,0,0,1,2.53,2.56l-.37,3.51a4.89,4.89,0,0,0-.56-2.27,4.45,4.45,0,0,0-1.6-1.74,4.59,4.59,0,0,0-2.48-.66,4.54,4.54,0,0,0-3.54,1.38A5.59,5.59,0,0,0,867,818v3.95a5.48,5.48,0,0,0,1.24,3.83,4.56,4.56,0,0,0,3.54,1.36,4.38,4.38,0,0,0,2.46-.69,4.62,4.62,0,0,0,1.62-1.78,5,5,0,0,0,.56-2.29l.24,3.81a4.41,4.41,0,0,1-2.18,2.4,8.33,8.33,0,0,1-3.7.73A6.38,6.38,0,0,1,867.36,828.4Zm0,7.26a6,6,0,0,1-2.52-2.15l1.73-1.55a5.83,5.83,0,0,0,2,1.66,5.39,5.39,0,0,0,2.45.59,5.29,5.29,0,0,0,4-1.42,5.39,5.39,0,0,0,1.41-4v-18h2.53v17.7a9.39,9.39,0,0,1-.92,4.31,6.29,6.29,0,0,1-2.68,2.72,9,9,0,0,1-4.24.93A8.54,8.54,0,0,1,867.41,835.66Z" transform="translate(-565.67 -63.3)"/><path class="cls-4" d="M887.54,828.31a6.42,6.42,0,0,1-2.74-2.79,9.58,9.58,0,0,1-.94-4.42V819a10.6,10.6,0,0,1,.91-4.62,6.49,6.49,0,0,1,2.62-2.92,8.12,8.12,0,0,1,4.15-1,7.35,7.35,0,0,1,3.91,1,6.34,6.34,0,0,1,2.47,2.87,11.16,11.16,0,0,1,.85,4.55V821H885.58v-2.28h10.83v-.18a6.23,6.23,0,0,0-1.27-4.19,4.49,4.49,0,0,0-3.6-1.49,4.94,4.94,0,0,0-3.93,1.57,6.43,6.43,0,0,0-1.39,4.43v2.32a5.81,5.81,0,0,0,1.47,4.24,5.61,5.61,0,0,0,4.17,1.5,6.33,6.33,0,0,0,2.5-.52,6.77,6.77,0,0,0,2.21-1.5l1.72,1.65a9.82,9.82,0,0,1-3,2,8.8,8.8,0,0,1-3.41.71A9,9,0,0,1,887.54,828.31Z" transform="translate(-565.67 -63.3)"/><path class="cls-4" d="M902.28,810.76h8.23v2.18h-8.23Zm2.91,17.11a5.51,5.51,0,0,1-1-3.61V805.45h2.54v18.84a2.8,2.8,0,0,0,.52,1.82,1.94,1.94,0,0,0,1.57.63h1.72v2.35h-2.07A4,4,0,0,1,905.19,827.87Z" transform="translate(-565.67 -63.3)"/><path class="cls-4" d="M925.63,803.45h2.53V806h-2.53Zm0,7.31h2.53V829h-2.53Z" transform="translate(-565.67 -63.3)"/><path class="cls-4" d="M934.13,810.76h2.54V829h-2.54ZM946.26,818a5.22,5.22,0,0,0-1.27-3.76,4.74,4.74,0,0,0-3.6-1.34,4.81,4.81,0,0,0-3.48,1.19,4.42,4.42,0,0,0-1.24,3.36l-.37-3.51a5.88,5.88,0,0,1,2.56-2.59,8.14,8.14,0,0,1,3.71-.8,5.66,5.66,0,0,1,4.6,1.94,8.32,8.32,0,0,1,1.62,5.49V829h-2.53Z" transform="translate(-565.67 -63.3)"/><path class="cls-4" d="M962.51,810.76h8.22v2.18h-8.22Zm2.91,17.11a5.45,5.45,0,0,1-1-3.61V805.45h2.53v18.84a2.74,2.74,0,0,0,.53,1.82,1.91,1.91,0,0,0,1.56.63h1.72v2.35h-2.07A4,4,0,0,1,965.42,827.87Z" transform="translate(-565.67 -63.3)"/><path class="cls-4" d="M978.59,828.34a6.18,6.18,0,0,1-2.58-2.72,9.59,9.59,0,0,1-.88-4.3v-3a9.38,9.38,0,0,1,.88-4.24,6.1,6.1,0,0,1,2.58-2.69,9.42,9.42,0,0,1,8.12,0,6.1,6.1,0,0,1,2.58,2.69,9.38,9.38,0,0,1,.88,4.24v3a9.44,9.44,0,0,1-.88,4.26,6.18,6.18,0,0,1-2.58,2.7,9.33,9.33,0,0,1-8.12,0Zm7.74-2.88a5.84,5.84,0,0,0,1.31-4.08v-3a5.8,5.8,0,0,0-1.31-4.06,5.43,5.43,0,0,0-7.37,0,5.84,5.84,0,0,0-1.3,4.06v3a5.88,5.88,0,0,0,1.3,4.08,5.41,5.41,0,0,0,7.37,0Z" transform="translate(-565.67 -63.3)"/><path class="cls-4" d="M997.36,821.85a5.26,5.26,0,0,0,1.25,3.74,4.62,4.62,0,0,0,3.53,1.32,4.78,4.78,0,0,0,3.51-1.21,4.57,4.57,0,0,0,1.24-3.43l.25,3.82a5.52,5.52,0,0,1-2.21,2.27,7.38,7.38,0,0,1-3.79.91,5.77,5.77,0,0,1-4.66-1.94,8.23,8.23,0,0,1-1.65-5.48V810.76h2.53Zm9.53-11.09h2.51V829h-2.51Z" transform="translate(-565.67 -63.3)"/><path class="cls-4" d="M1017.82,828.39a5.68,5.68,0,0,1-2.62-2.64,9.9,9.9,0,0,1-.87-4.41v-3a9.56,9.56,0,0,1,.88-4.36,5.71,5.71,0,0,1,2.62-2.61,9.84,9.84,0,0,1,4.39-.87,10.52,10.52,0,0,1,2.72.32,7.32,7.32,0,0,1,2.2,1,6.66,6.66,0,0,1,1.69,1.62l-1.88,1.67a5.86,5.86,0,0,0-4.68-2.23,5.54,5.54,0,0,0-4.07,1.36,5.7,5.7,0,0,0-1.34,4.13v3a5.8,5.8,0,0,0,1.35,4.19,5.45,5.45,0,0,0,4.06,1.38,6.84,6.84,0,0,0,2.72-.52,6.47,6.47,0,0,0,2.2-1.6l1.64,1.61a6.41,6.41,0,0,1-1.69,1.6,7.05,7.05,0,0,1-2.2,1,11,11,0,0,1-2.72.32A9.77,9.77,0,0,1,1017.82,828.39Z" transform="translate(-565.67 -63.3)"/><path class="cls-4" d="M1032.78,803.45h2.53V829h-2.53Zm12.13,14.5a5.22,5.22,0,0,0-1.27-3.76,4.74,4.74,0,0,0-3.6-1.34,4.86,4.86,0,0,0-3.49,1.19,4.45,4.45,0,0,0-1.24,3.36l-.36-3.51a5.88,5.88,0,0,1,2.56-2.59,8.11,8.11,0,0,1,3.71-.8,5.66,5.66,0,0,1,4.6,1.94,8.32,8.32,0,0,1,1.62,5.49V829h-2.53Z" transform="translate(-565.67 -63.3)"/><path class="cls-4" d="M1052.72,826.12h2.88v4.47l-2.88,3.2Z" transform="translate(-565.67 -63.3)"/><path class="cls-4" d="M1073.25,821.85a5.22,5.22,0,0,0,1.25,3.74,4.62,4.62,0,0,0,3.53,1.32,4.81,4.81,0,0,0,3.51-1.21,4.6,4.6,0,0,0,1.24-3.43l.24,3.82a5.49,5.49,0,0,1-2.2,2.27,7.41,7.41,0,0,1-3.79.91,5.8,5.8,0,0,1-4.67-1.94,8.22,8.22,0,0,1-1.64-5.48V810.76h2.53Zm9.53-11.09h2.51V829h-2.51Z" transform="translate(-565.67 -63.3)"/><path class="cls-4" d="M1094.15,829a11.74,11.74,0,0,1-2.59-.85,9.42,9.42,0,0,1-2.14-1.36l1.46-1.77a13.55,13.55,0,0,0,3.09,1.55,9.31,9.31,0,0,0,3,.56,7.66,7.66,0,0,0,4.06-.9,2.84,2.84,0,0,0,1.43-2.53,2.21,2.21,0,0,0-.7-1.79,3.69,3.69,0,0,0-1.75-.81,24.81,24.81,0,0,0-2.93-.35l-.36,0c-.12,0-.24,0-.36,0h-.28a17.68,17.68,0,0,1-3-.53,4.16,4.16,0,0,1-2-1.32,4.24,4.24,0,0,1-.81-2.79,5.09,5.09,0,0,1,.85-3,5.3,5.3,0,0,1,2.49-1.88,10.65,10.65,0,0,1,4-.65,12.9,12.9,0,0,1,2.39.23,12.73,12.73,0,0,1,2.3.69,10.71,10.71,0,0,1,2,1.08l-1.46,1.74a12.69,12.69,0,0,0-2.71-1.17,9.54,9.54,0,0,0-2.63-.41,6.32,6.32,0,0,0-3.57.86,2.75,2.75,0,0,0-1.27,2.43,1.93,1.93,0,0,0,.69,1.62,3.62,3.62,0,0,0,1.73.71,27.17,27.17,0,0,0,2.87.28h.41l.1,0a16.08,16.08,0,0,1,3.26.47,4.47,4.47,0,0,1,2.26,1.46,4.79,4.79,0,0,1,.92,3.15,5,5,0,0,1-.92,3,5.63,5.63,0,0,1-2.67,1.91,12.06,12.06,0,0,1-4.24.66A14.15,14.15,0,0,1,1094.15,829Z" transform="translate(-565.67 -63.3)"/><path class="cls-4" d="M1112.55,828.31a6.45,6.45,0,0,1-2.73-2.79,9.58,9.58,0,0,1-.94-4.42V819a10.75,10.75,0,0,1,.9-4.62,6.51,6.51,0,0,1,2.63-2.92,8.1,8.1,0,0,1,4.15-1,7.34,7.34,0,0,1,3.9,1,6.29,6.29,0,0,1,2.47,2.87,11,11,0,0,1,.86,4.55V821H1110.6v-2.28h10.83v-.18a6.28,6.28,0,0,0-1.27-4.19,4.49,4.49,0,0,0-3.6-1.49,5,5,0,0,0-3.94,1.57,6.48,6.48,0,0,0-1.39,4.43v2.32a5.82,5.82,0,0,0,1.48,4.24,5.59,5.59,0,0,0,4.17,1.5,6.33,6.33,0,0,0,2.5-.52,6.87,6.87,0,0,0,2.21-1.5l1.72,1.65a9.82,9.82,0,0,1-3,2,8.8,8.8,0,0,1-3.41.71A9.08,9.08,0,0,1,1112.55,828.31Z" transform="translate(-565.67 -63.3)"/><path class="cls-4" d="M1137,810.76h8.23v2.18H1137Zm2.91,17.11a5.45,5.45,0,0,1-1-3.61V805.45h2.53v18.84a2.8,2.8,0,0,0,.53,1.82,1.91,1.91,0,0,0,1.56.63h1.73v2.35h-2.08A4,4,0,0,1,1139.88,827.87Z" transform="translate(-565.67 -63.3)"/><path class="cls-4" d="M1150.12,803.45h2.53V829h-2.53Zm12.13,14.5a5.22,5.22,0,0,0-1.28-3.76,4.74,4.74,0,0,0-3.59-1.34,4.84,4.84,0,0,0-3.49,1.19,4.42,4.42,0,0,0-1.24,3.36l-.37-3.51a5.85,5.85,0,0,1,2.57-2.59,8.06,8.06,0,0,1,3.7-.8,5.63,5.63,0,0,1,4.6,1.94,8.27,8.27,0,0,1,1.63,5.49V829h-2.53Z" transform="translate(-565.67 -63.3)"/><path class="cls-4" d="M1173.37,828.31a6.45,6.45,0,0,1-2.73-2.79,9.58,9.58,0,0,1-.94-4.42V819a10.75,10.75,0,0,1,.9-4.62,6.51,6.51,0,0,1,2.63-2.92,8.1,8.1,0,0,1,4.15-1,7.31,7.31,0,0,1,3.9,1,6.29,6.29,0,0,1,2.47,2.87,11,11,0,0,1,.86,4.55V821h-13.19v-2.28h10.83v-.18a6.23,6.23,0,0,0-1.27-4.19,4.49,4.49,0,0,0-3.6-1.49,5,5,0,0,0-3.94,1.57,6.48,6.48,0,0,0-1.39,4.43v2.32a5.82,5.82,0,0,0,1.48,4.24,5.59,5.59,0,0,0,4.17,1.5,6.33,6.33,0,0,0,2.5-.52,6.87,6.87,0,0,0,2.21-1.5l1.72,1.65a9.82,9.82,0,0,1-3,2,8.8,8.8,0,0,1-3.41.71A9.08,9.08,0,0,1,1173.37,828.31Z" transform="translate(-565.67 -63.3)"/><path class="cls-4" d="M756.71,854h9.12v2.18h-9.12Zm1.93-2.48a5.39,5.39,0,0,1,1.05-3.63,4,4,0,0,1,3.15-1.2h3V849h-2.56a2,2,0,0,0-1.58.61,2.8,2.8,0,0,0-.52,1.84v20.76h-2.53Z" transform="translate(-565.67 -63.3)"/><path class="cls-4" d="M771.93,871.54a6.15,6.15,0,0,1-2.57-2.72,9.58,9.58,0,0,1-.89-4.3v-3a9.38,9.38,0,0,1,.89-4.24,6.08,6.08,0,0,1,2.57-2.69,9.42,9.42,0,0,1,8.12,0,6.05,6.05,0,0,1,2.58,2.69,9.38,9.38,0,0,1,.89,4.24v3a9.44,9.44,0,0,1-.89,4.26,6.13,6.13,0,0,1-2.58,2.7,9.33,9.33,0,0,1-8.12,0Zm7.75-2.88a5.88,5.88,0,0,0,1.31-4.08v-3a5.85,5.85,0,0,0-1.31-4.06,4.76,4.76,0,0,0-3.7-1.44,4.7,4.7,0,0,0-3.68,1.44,5.84,5.84,0,0,0-1.3,4.06v3a5.88,5.88,0,0,0,1.3,4.08,4.68,4.68,0,0,0,3.68,1.45A4.73,4.73,0,0,0,779.68,868.66Z" transform="translate(-565.67 -63.3)"/><path class="cls-4" d="M788.61,854h2.54v18.25h-2.54Zm9.33,2.39a6,6,0,0,0-2-.3,4.92,4.92,0,0,0-3.55,1.22,4.52,4.52,0,0,0-1.26,3.39l-.37-3.52a7.09,7.09,0,0,1,2.62-2.54,7.24,7.24,0,0,1,3.56-.9,6.66,6.66,0,0,1,2.26.36,5,5,0,0,1,1.77,1.06l-1.64,2.11A3.49,3.49,0,0,0,797.94,856.35Z" transform="translate(-565.67 -63.3)"/><path class="cls-4" d="M804,854h2.53v18.25H804Zm11.42,7.19a5.56,5.56,0,0,0-1.15-3.76,4.1,4.1,0,0,0-3.28-1.34,4.36,4.36,0,0,0-3.29,1.21,4.66,4.66,0,0,0-1.17,3.4l-.37-3.52a5.91,5.91,0,0,1,2.39-2.64,7.15,7.15,0,0,1,3.45-.8,5.81,5.81,0,0,1,3.22.87,5.32,5.32,0,0,1,2,2.54,10.49,10.49,0,0,1,.69,4v11.08H815.4Zm11.43,0a5.56,5.56,0,0,0-1.16-3.76,4.09,4.09,0,0,0-3.27-1.34,4.23,4.23,0,0,0-3.3,1.3,5.29,5.29,0,0,0-1.17,3.66l-1.07-2.64a7.78,7.78,0,0,1,2.45-3.47,6,6,0,0,1,3.76-1.2,6.37,6.37,0,0,1,3.4.87,5.46,5.46,0,0,1,2.15,2.54,9.92,9.92,0,0,1,.74,4v11.08h-2.53Z" transform="translate(-565.67 -63.3)"/><path class="cls-4" d="M834.63,869.32h2.89v2.89h-2.89Z" transform="translate(-565.67 -63.3)"/><path class="cls-4" d="M864.18,846.65h1.76l5.59,22,5.4-22h2.84l-6.94,25.56h-2.6l-5.06-20.15-5.28,20.15h-2.6l-6.94-25.56h2.85l5.39,22Z" transform="translate(-565.67 -63.3)"/><path class="cls-4" d="M884.68,871.51a6.35,6.35,0,0,1-2.73-2.79,9.58,9.58,0,0,1-1-4.42v-2.06a10.75,10.75,0,0,1,.91-4.62,6.45,6.45,0,0,1,2.63-2.92,8.1,8.1,0,0,1,4.15-1,7.34,7.34,0,0,1,3.9,1,6.29,6.29,0,0,1,2.47,2.87,11,11,0,0,1,.85,4.55v2.09H882.73v-2.28h10.83v-.18a6.23,6.23,0,0,0-1.28-4.19,4.48,4.48,0,0,0-3.59-1.49,5,5,0,0,0-3.94,1.57,6.43,6.43,0,0,0-1.39,4.43v2.32a5.78,5.78,0,0,0,1.48,4.24,5.57,5.57,0,0,0,4.16,1.5,6.38,6.38,0,0,0,2.51-.52,6.83,6.83,0,0,0,2.2-1.5l1.73,1.66a9.89,9.89,0,0,1-3,2,8.76,8.76,0,0,1-3.41.71A9,9,0,0,1,884.68,871.51Z" transform="translate(-565.67 -63.3)"/><path class="cls-4" d="M913,867.41a2.63,2.63,0,0,0,.57,1.8,2,2,0,0,0,1.59.64h1.69v2.36h-2.11a4,4,0,0,1-3.15-1.27,5.18,5.18,0,0,1-1.12-3.57V846.65H913Z" transform="translate(-565.67 -63.3)"/><path class="cls-4" d="M923.86,871.54a6.15,6.15,0,0,1-2.57-2.72,9.45,9.45,0,0,1-.89-4.3v-3a9.25,9.25,0,0,1,.89-4.24,6.08,6.08,0,0,1,2.57-2.69,9.42,9.42,0,0,1,8.12,0,6.1,6.1,0,0,1,2.58,2.69,9.38,9.38,0,0,1,.88,4.24v3a9.44,9.44,0,0,1-.88,4.26,6.18,6.18,0,0,1-2.58,2.7,9.33,9.33,0,0,1-8.12,0Zm7.74-2.88a5.84,5.84,0,0,0,1.31-4.08v-3a5.8,5.8,0,0,0-1.31-4.06,5.43,5.43,0,0,0-7.37,0,5.84,5.84,0,0,0-1.3,4.06v3a5.88,5.88,0,0,0,1.3,4.08,5.41,5.41,0,0,0,7.37,0Z" transform="translate(-565.67 -63.3)"/><path class="cls-4" d="M943.48,871.54a6.12,6.12,0,0,1-2.58-2.72,9.58,9.58,0,0,1-.89-4.3v-3a9.38,9.38,0,0,1,.89-4.24,6.05,6.05,0,0,1,2.58-2.69,9.42,9.42,0,0,1,8.12,0,6.08,6.08,0,0,1,2.57,2.69,9.25,9.25,0,0,1,.89,4.24v3a9.31,9.31,0,0,1-.89,4.26,6.16,6.16,0,0,1-2.57,2.7,9.33,9.33,0,0,1-8.12,0Zm7.74-2.88a5.88,5.88,0,0,0,1.31-4.08v-3a5.85,5.85,0,0,0-1.31-4.06,4.75,4.75,0,0,0-3.7-1.44,4.68,4.68,0,0,0-3.67,1.44,5.84,5.84,0,0,0-1.3,4.06v3a5.88,5.88,0,0,0,1.3,4.08,4.65,4.65,0,0,0,3.67,1.45A4.72,4.72,0,0,0,951.22,868.66Z" transform="translate(-565.67 -63.3)"/><path class="cls-4" d="M960.16,846.65h2.53v25.56h-2.53ZM962,866l10.35-12h3l-13.83,15.57Zm5.17-3.65,1.47-2.39,7.6,12.27h-3.08Z" transform="translate(-565.67 -63.3)"/><path class="cls-4" d="M987.46,854h9.12v2.18h-9.12Zm1.93-2.48a5.39,5.39,0,0,1,1.05-3.63,4,4,0,0,1,3.15-1.2h3V849H994a2,2,0,0,0-1.57.61,2.8,2.8,0,0,0-.52,1.84v20.76h-2.53Z" transform="translate(-565.67 -63.3)"/><path class="cls-4" d="M1002.68,871.54a6.15,6.15,0,0,1-2.57-2.72,9.45,9.45,0,0,1-.89-4.3v-3a9.25,9.25,0,0,1,.89-4.24,6.08,6.08,0,0,1,2.57-2.69,9.42,9.42,0,0,1,8.12,0,6.05,6.05,0,0,1,2.58,2.69,9.38,9.38,0,0,1,.88,4.24v3a9.44,9.44,0,0,1-.88,4.26,6.13,6.13,0,0,1-2.58,2.7,9.33,9.33,0,0,1-8.12,0Zm7.74-2.88a5.84,5.84,0,0,0,1.31-4.08v-3a5.8,5.8,0,0,0-1.31-4.06,5.43,5.43,0,0,0-7.37,0,5.84,5.84,0,0,0-1.3,4.06v3a5.88,5.88,0,0,0,1.3,4.08,5.41,5.41,0,0,0,7.37,0Z" transform="translate(-565.67 -63.3)"/><path class="cls-4" d="M1019.36,854h2.53v18.25h-2.53Zm9.33,2.39a6,6,0,0,0-2-.3,4.92,4.92,0,0,0-3.55,1.22,4.52,4.52,0,0,0-1.27,3.39l-.37-3.52a7.12,7.12,0,0,1,6.19-3.44,6.7,6.7,0,0,1,2.26.36,5.13,5.13,0,0,1,1.77,1.06l-1.64,2.11A3.49,3.49,0,0,0,1028.69,856.35Z" transform="translate(-565.67 -63.3)"/><path class="cls-4" d="M1033.14,854h2.69l4.29,14.78L1045.2,854h1.44l5.08,14.78L1056,854h2.69l-5.8,18.25h-2.18l-4.8-13.66-4.8,13.66h-2.18Z" transform="translate(-565.67 -63.3)"/><path class="cls-4" d="M1063.45,871a5.13,5.13,0,0,1-1.76-4.16,5,5,0,0,1,1.61-4,6.62,6.62,0,0,1,4.54-1.42h6.07l.24,2.36h-6.29a4.16,4.16,0,0,0-2.72.8,3.07,3.07,0,0,0,.25,4.66,5.89,5.89,0,0,0,3.4.85,11,11,0,0,0,3.66-.48c.87-.31,1.3-.76,1.3-1.33l.37,2.39a5,5,0,0,1-1.4,1,7.7,7.7,0,0,1-2,.63,12.56,12.56,0,0,1-2.36.21A7.45,7.45,0,0,1,1063.45,871Zm10.3-10.35a4.75,4.75,0,0,0-1.19-3.44,4.48,4.48,0,0,0-3.36-1.22,7.93,7.93,0,0,0-2.55.42,7.21,7.21,0,0,0-2.22,1.2l-1.84-1.27a6.82,6.82,0,0,1,2.73-1.94,9.93,9.93,0,0,1,3.77-.69,8.63,8.63,0,0,1,3.89.8,5.58,5.58,0,0,1,2.46,2.32,7.44,7.44,0,0,1,.84,3.66v11.73h-2.53Z" transform="translate(-565.67 -63.3)"/><path class="cls-4" d="M1081.73,854h2.53v18.25h-2.53Zm9.32,2.39a5.87,5.87,0,0,0-2-.3,4.9,4.9,0,0,0-3.55,1.22,4.49,4.49,0,0,0-1.27,3.39l-.37-3.52a7.12,7.12,0,0,1,6.19-3.44,6.74,6.74,0,0,1,2.26.36,5,5,0,0,1,1.76,1.06l-1.63,2.11A3.6,3.6,0,0,0,1091.05,856.35Z" transform="translate(-565.67 -63.3)"/><path class="cls-4" d="M1099.11,871.6a5.52,5.52,0,0,1-2.16-2.52,9.75,9.75,0,0,1-.74-4v-4a10.1,10.1,0,0,1,.72-4,5.5,5.5,0,0,1,2.11-2.54,6.07,6.07,0,0,1,3.31-.87,8.15,8.15,0,0,1,3.66.78,5.8,5.8,0,0,1,2.53,2.56l-.37,3.51a4.89,4.89,0,0,0-.56-2.27,4.48,4.48,0,0,0-1.61-1.74,5.12,5.12,0,0,0-6,.72,5.59,5.59,0,0,0-1.24,3.89v4a5.47,5.47,0,0,0,1.24,3.83,4.56,4.56,0,0,0,3.54,1.36,4.42,4.42,0,0,0,2.46-.69,4.52,4.52,0,0,0,1.61-1.78,4.92,4.92,0,0,0,.57-2.29l.24,3.81a4.41,4.41,0,0,1-2.18,2.4,8.34,8.34,0,0,1-3.71.73A6.43,6.43,0,0,1,1099.11,871.6Zm9.06-25h2.53v25.56h-2.53Z" transform="translate(-565.67 -63.3)"/><path class="cls-4" d="M1124.41,854h8.23v2.18h-8.23Zm2.91,17.11a5.45,5.45,0,0,1-1-3.61V848.65h2.53V867.5a2.79,2.79,0,0,0,.53,1.81,1.91,1.91,0,0,0,1.56.63h1.73v2.35h-2.08A4,4,0,0,1,1127.32,871.07Z" transform="translate(-565.67 -63.3)"/><path class="cls-4" d="M1140.49,871.54a6.15,6.15,0,0,1-2.57-2.72,9.58,9.58,0,0,1-.89-4.3v-3a9.38,9.38,0,0,1,.89-4.24,6.08,6.08,0,0,1,2.57-2.69,9.42,9.42,0,0,1,8.12,0,6.05,6.05,0,0,1,2.58,2.69,9.38,9.38,0,0,1,.89,4.24v3a9.44,9.44,0,0,1-.89,4.26,6.13,6.13,0,0,1-2.58,2.7,9.33,9.33,0,0,1-8.12,0Zm7.75-2.88a5.88,5.88,0,0,0,1.31-4.08v-3a5.85,5.85,0,0,0-1.31-4.06,4.76,4.76,0,0,0-3.7-1.44,4.7,4.7,0,0,0-3.68,1.44,5.89,5.89,0,0,0-1.3,4.06v3a5.93,5.93,0,0,0,1.3,4.08,4.68,4.68,0,0,0,3.68,1.45A4.73,4.73,0,0,0,1148.24,868.66Z" transform="translate(-565.67 -63.3)"/><path class="cls-4" d="M815.67,889.85h2.53v25.56h-2.53Zm12.13,14.5a5.22,5.22,0,0,0-1.28-3.76,4.74,4.74,0,0,0-3.59-1.34,4.84,4.84,0,0,0-3.49,1.19,4.42,4.42,0,0,0-1.24,3.36l-.37-3.51a5.85,5.85,0,0,1,2.57-2.59,8.06,8.06,0,0,1,3.7-.8,5.65,5.65,0,0,1,4.6,1.94,8.27,8.27,0,0,1,1.63,5.49v11.08H827.8Z" transform="translate(-565.67 -63.3)"/><path class="cls-4" d="M838.92,914.71a6.45,6.45,0,0,1-2.73-2.79,9.58,9.58,0,0,1-.94-4.42v-2.06a10.75,10.75,0,0,1,.9-4.62,6.51,6.51,0,0,1,2.63-2.92,8.1,8.1,0,0,1,4.15-1,7.34,7.34,0,0,1,3.9,1,6.29,6.29,0,0,1,2.47,2.87,11,11,0,0,1,.86,4.55v2.09H837V905.1H847.8v-.17a6.23,6.23,0,0,0-1.27-4.19,4.49,4.49,0,0,0-3.6-1.49,5,5,0,0,0-3.94,1.57,6.46,6.46,0,0,0-1.39,4.43v2.32a5.82,5.82,0,0,0,1.48,4.24,5.59,5.59,0,0,0,4.17,1.5,6.33,6.33,0,0,0,2.5-.52,7,7,0,0,0,2.21-1.5l1.72,1.65a9.82,9.82,0,0,1-3,2,8.8,8.8,0,0,1-3.41.71A9.08,9.08,0,0,1,838.92,914.71Z" transform="translate(-565.67 -63.3)"/><path class="cls-4" d="M856,914.19A5.1,5.1,0,0,1,854.2,910a5,5,0,0,1,1.61-4,6.61,6.61,0,0,1,4.54-1.42h6.07l.24,2.36h-6.29a4.11,4.11,0,0,0-2.72.8,3.06,3.06,0,0,0,.25,4.66,5.87,5.87,0,0,0,3.4.85,11,11,0,0,0,3.66-.48c.86-.31,1.3-.76,1.3-1.33l.37,2.39a5,5,0,0,1-1.4,1,7.7,7.7,0,0,1-2,.63,12.67,12.67,0,0,1-2.37.21A7.44,7.44,0,0,1,856,914.19Zm10.3-10.35a4.75,4.75,0,0,0-1.19-3.44,4.49,4.49,0,0,0-3.37-1.22,7.91,7.91,0,0,0-2.54.42,7,7,0,0,0-2.22,1.2l-1.85-1.27a6.92,6.92,0,0,1,2.74-1.94,9.93,9.93,0,0,1,3.77-.69,8.55,8.55,0,0,1,3.88.8,5.48,5.48,0,0,1,2.46,2.32,7.34,7.34,0,0,1,.85,3.66v11.73h-2.53Z" transform="translate(-565.67 -63.3)"/><path class="cls-4" d="M874.24,897.16h2.53v18.25h-2.53Zm9.32,2.39a6,6,0,0,0-2-.3,4.93,4.93,0,0,0-3.55,1.22,4.52,4.52,0,0,0-1.26,3.39l-.37-3.52A7,7,0,0,1,879,897.8a7.22,7.22,0,0,1,3.56-.9,6.74,6.74,0,0,1,2.26.36,5,5,0,0,1,1.76,1.06L885,900.43A3.6,3.6,0,0,0,883.56,899.55Z" transform="translate(-565.67 -63.3)"/><path class="cls-4" d="M890.13,889.85h2.53v2.53h-2.53Zm0,7.31h2.53v18.25h-2.53Z" transform="translate(-565.67 -63.3)"/><path class="cls-4" d="M898.64,897.16h2.53v18.25h-2.53Zm12.12,7.19a5.22,5.22,0,0,0-1.27-3.76,4.74,4.74,0,0,0-3.59-1.34,4.84,4.84,0,0,0-3.49,1.19,4.42,4.42,0,0,0-1.24,3.36l-.37-3.51a5.88,5.88,0,0,1,2.56-2.59,8.14,8.14,0,0,1,3.71-.8,5.65,5.65,0,0,1,4.6,1.94,8.32,8.32,0,0,1,1.63,5.49v11.08h-2.54Z" transform="translate(-565.67 -63.3)"/><path class="cls-4" d="M921.12,914.8a5.47,5.47,0,0,1-2.16-2.52,9.62,9.62,0,0,1-.74-4v-4a10.1,10.1,0,0,1,.72-4,5.42,5.42,0,0,1,2.1-2.54,6.07,6.07,0,0,1,3.31-.87,8.16,8.16,0,0,1,3.67.78,5.73,5.73,0,0,1,2.52,2.56l-.37,3.51a4.88,4.88,0,0,0-.55-2.27,4.89,4.89,0,0,0-7.62-1,5.6,5.6,0,0,0-1.25,3.89v3.95a5.49,5.49,0,0,0,1.25,3.83,4.54,4.54,0,0,0,3.53,1.36,4.38,4.38,0,0,0,2.46-.69,4.62,4.62,0,0,0,1.62-1.78,5,5,0,0,0,.56-2.29l.25,3.81a4.48,4.48,0,0,1-2.18,2.4,8.4,8.4,0,0,1-3.71.73A6.4,6.4,0,0,1,921.12,914.8Zm0,7.26a5.89,5.89,0,0,1-2.51-2.15l1.72-1.55a5.77,5.77,0,0,0,2,1.66,5.86,5.86,0,0,0,6.39-.83,5.39,5.39,0,0,0,1.41-4V897.16h2.53v17.7a9.39,9.39,0,0,1-.92,4.31,6.29,6.29,0,0,1-2.68,2.72,9,9,0,0,1-4.24.93A8.54,8.54,0,0,1,921.17,922.06Z" transform="translate(-565.67 -63.3)"/><path class="cls-4" d="M946.41,897.16h9.13v2.18h-9.13Zm1.94-2.48a5.44,5.44,0,0,1,1-3.63,4,4,0,0,1,3.16-1.2h3v2.35H953a1.93,1.93,0,0,0-1.57.61,2.75,2.75,0,0,0-.52,1.84v20.76h-2.53Z" transform="translate(-565.67 -63.3)"/><path class="cls-4" d="M958.52,897.16h2.54v18.25h-2.54Zm9.33,2.39a6,6,0,0,0-2-.3,4.93,4.93,0,0,0-3.55,1.22,4.52,4.52,0,0,0-1.26,3.39l-.37-3.52a7,7,0,0,1,2.62-2.54,7.24,7.24,0,0,1,3.56-.9,6.66,6.66,0,0,1,2.26.36,5,5,0,0,1,1.77,1.06l-1.64,2.11A3.49,3.49,0,0,0,967.85,899.55Z" transform="translate(-565.67 -63.3)"/><path class="cls-4" d="M976.47,914.74A6.15,6.15,0,0,1,973.9,912a9.45,9.45,0,0,1-.89-4.3v-3a9.25,9.25,0,0,1,.89-4.24,6.08,6.08,0,0,1,2.57-2.69,9.42,9.42,0,0,1,8.12,0,6.05,6.05,0,0,1,2.58,2.69,9.38,9.38,0,0,1,.89,4.24v3a9.44,9.44,0,0,1-.89,4.26,6.13,6.13,0,0,1-2.58,2.7,9.33,9.33,0,0,1-8.12,0Zm7.74-2.88a5.84,5.84,0,0,0,1.31-4.08v-3a5.8,5.8,0,0,0-1.31-4.06,5.43,5.43,0,0,0-7.37,0,5.84,5.84,0,0,0-1.3,4.06v3a5.88,5.88,0,0,0,1.3,4.08,5.41,5.41,0,0,0,7.37,0Z" transform="translate(-565.67 -63.3)"/><path class="cls-4" d="M993.15,897.16h2.53v18.25h-2.53Zm11.43,7.19a5.56,5.56,0,0,0-1.15-3.76,4.1,4.1,0,0,0-3.28-1.34,4.36,4.36,0,0,0-3.3,1.21,4.66,4.66,0,0,0-1.17,3.4l-.36-3.52a5.8,5.8,0,0,1,2.39-2.64,7.13,7.13,0,0,1,3.44-.8,5.82,5.82,0,0,1,3.23.87,5.43,5.43,0,0,1,2,2.54,10.49,10.49,0,0,1,.69,4v11.08h-2.53Zm11.42,0a5.51,5.51,0,0,0-1.16-3.76,4.09,4.09,0,0,0-3.26-1.34,4.2,4.2,0,0,0-3.3,1.3,5.29,5.29,0,0,0-1.17,3.66l-1.07-2.64a7.77,7.77,0,0,1,2.44-3.47,6,6,0,0,1,3.76-1.2,6.34,6.34,0,0,1,3.4.87,5.42,5.42,0,0,1,2.16,2.54,9.92,9.92,0,0,1,.74,4v11.08H1016Z" transform="translate(-565.67 -63.3)"/><path class="cls-4" d="M1031.72,897.16h2.6l6,16.93L1039,916.9Zm16.15,0-7.77,22.52a5.35,5.35,0,0,1-1.1,2,3.85,3.85,0,0,1-1.69,1.05,8.3,8.3,0,0,1-2.46.32h-.72v-2.39h.72a3.57,3.57,0,0,0,2.24-.65,4.88,4.88,0,0,0,1.43-2.2l6.75-20.62Z" transform="translate(-565.67 -63.3)"/><path class="cls-4" d="M1053.62,914.74a6.15,6.15,0,0,1-2.57-2.72,9.58,9.58,0,0,1-.89-4.3v-3a9.38,9.38,0,0,1,.89-4.24,6.08,6.08,0,0,1,2.57-2.69,9.42,9.42,0,0,1,8.12,0,6.05,6.05,0,0,1,2.58,2.69,9.38,9.38,0,0,1,.89,4.24v3a9.44,9.44,0,0,1-.89,4.26,6.13,6.13,0,0,1-2.58,2.7,9.33,9.33,0,0,1-8.12,0Zm7.75-2.88a5.88,5.88,0,0,0,1.3-4.08v-3a5.84,5.84,0,0,0-1.3-4.06,4.76,4.76,0,0,0-3.7-1.44,4.7,4.7,0,0,0-3.68,1.44,5.84,5.84,0,0,0-1.3,4.06v3a5.88,5.88,0,0,0,1.3,4.08,4.68,4.68,0,0,0,3.68,1.45A4.73,4.73,0,0,0,1061.37,911.86Z" transform="translate(-565.67 -63.3)"/><path class="cls-4" d="M1072.4,908.25a5.26,5.26,0,0,0,1.24,3.74,4.65,4.65,0,0,0,3.54,1.32,4.77,4.77,0,0,0,3.5-1.21,4.57,4.57,0,0,0,1.24-3.43l.25,3.82a5.44,5.44,0,0,1-2.21,2.26,7.29,7.29,0,0,1-3.79.92,5.77,5.77,0,0,1-4.66-1.94,8.23,8.23,0,0,1-1.65-5.48V897.16h2.54Zm9.52-11.09h2.52v18.25h-2.52Z" transform="translate(-565.67 -63.3)"/><path class="cls-4" d="M1090.5,912.52h2.88v2.89h-2.88Zm.18-22.67h2.53v19.7h-2.53Z" transform="translate(-565.67 -63.3)"/></svg>