<svg id="Layer_1" data-name="Layer 1" xmlns="http://www.w3.org/2000/svg" xmlns:xlink="http://www.w3.org/1999/xlink" viewBox="0 0 1920 788"><defs><style>.cls-1{fill:none;}.cls-2{fill:#b5dcd8;}.cls-3{fill:#828282;opacity:0.2;}.cls-4{fill:#fff;}.cls-5{fill:#af6b68;}.cls-6{fill:#136354;}.cls-7{fill:#3d8f7e;}.cls-8{fill:#51a295;}.cls-9{isolation:isolate;}.cls-10{clip-path:url(#clip-path);}.cls-11{fill:#65bbb4;}.cls-12{fill:#d6d8d8;}.cls-13{fill:#3f446b;}</style><clipPath id="clip-path" transform="translate(0 -145.8)"><polygon class="cls-1" points="959.66 470.78 1155.59 356.91 1396.17 495.81 1200.24 609.68 959.66 470.78"/></clipPath></defs><title>contact-art-mob</title><rect class="cls-2" x="566" y="-420.2" width="788" height="1920" transform="translate(1499.8 -566) rotate(90)"/><ellipse class="cls-3" cx="629.25" cy="276.2" rx="54.32" ry="24.74"/><path class="cls-4" d="M658.22,351.39c0-12-19.18-21.73-42.85-21.73s-42.85,9.73-42.85,21.73V419h.07a12.09,12.09,0,0,0-.07,1.21c0,12,19.19,21.72,42.85,21.72s42.85-9.72,42.85-21.72a12.09,12.09,0,0,0-.07-1.21h.07Z" transform="translate(0 -145.8)"/><ellipse class="cls-5" cx="615.44" cy="208.01" rx="38.09" ry="19.31"/><path class="cls-6" d="M622.92,312.8c1.4,16.44-7.33,34.46-13.85,34.21-8.09-.31-12.92-28.68-13.86-34.21a126.87,126.87,0,0,1-.44-39.41C598.34,275.46,620.91,289,622.92,312.8Z" transform="translate(0 -145.8)"/><path class="cls-7" d="M607.77,323.62c8.13,22.73,12.56,33.95,8.22,38.12-4,3.88-13.75,1.09-19.73-2.71-3.22-2-11.47-8.27-15.78-31.51-2.22-12-4.16-32.62,3-58.9a44.74,44.74,0,0,0,3.9,17.76c3.07,6.72,6.39,9.25,10.83,16C602.49,308.89,604.33,314,607.77,323.62Z" transform="translate(0 -145.8)"/><path class="cls-7" d="M629.42,323.62c-15.8,24.48-30.66,30.64-28.42,36.2,2.38,5.88,22.35,7.27,36-2,13.22-9,15.87-24.89,18.17-38.71,1.69-10.08,3.3-29-4.34-52.54a143.55,143.55,0,0,1-21.36,57Z" transform="translate(0 -145.8)"/><path class="cls-7" d="M639.38,310.2c2.62,22.14-10,47.46-19.27,47.2s-19-25.66-17.54-47.2c.65-9.54,3.61-18.34,9.53-35.95,3.46-10.29,6.76-18.62,9.09-24.25,1.65,6.44,4.21,15.93,7.8,27.28C636,299.37,638.41,302,639.38,310.2Z" transform="translate(0 -145.8)"/><path class="cls-8" d="M643.71,332.72c-2.45,15.84-17.79,31.87-27.72,29-8.6-2.48-13.6-19.26-10-31.62,2.5-8.48,7.82-10.67,15.16-20.79a82.82,82.82,0,0,0,13.43-29.88c1.92,9,4.29,20.48,6.93,33.78C643.86,324.92,644.41,328.17,643.71,332.72Z" transform="translate(0 -145.8)"/><g class="cls-9"><g class="cls-10"><path class="cls-11" d="M1119.47,394.12q-7.93-3.63-15.7-7.07h0q3.13,6.27,6.26,12.55l9.45-5.49m212.59,122.74-9.45,5.49,21.69,3.59h0q-6-4.48-12.25-9.07" transform="translate(0 -145.8)"/><path class="cls-4" d="M1156.33,465.11l5.4-3.14,16.42,9.49-5.39,3.13-16.43-9.48m21.73,12.54,5.39-3.14,16.42,9.49-5.39,3.13-16.42-9.48m-39.92-34.49,5.4-3.14,99,57.19-5.39,3.14-99.06-57.19m-14.29-32.73,5.39-3.13L1185.93,440l-5.4,3.13-56.68-32.73m63,36.4,5.39-3.14,16.42,9.49-5.39,3.13-16.42-9.48m21.72,12.54,5.39-3.14,16.42,9.49-5.39,3.13-16.42-9.48m23.83,13.76,5.39-3.13,47.68,27.52-5.39,3.14-47.68-27.53m55.47,31,5.39-3.14,16.42,9.48-5.39,3.14-16.42-9.48M1134.27,405l5.39-3.13,23.84,13.76-5.39,3.14L1134.27,405m34.43,19.88,5.39-3.13,99.06,57.19-5.39,3.13-99.06-57.19m106.47,61.47,5.39-3.13,38.15,22-5.39,3.13-38.15-22M1145.5,398.46l5.4-3.13,105.94,61.17-5.39,3.13-106-61.17m122.37,70.65,5.39-3.13,56.68,32.72-5.39,3.14-56.68-32.73m-106.63-78.74,5.39-3.13,55.11,31.81-5.39,3.14-55.11-31.82m195,82.39L1195.53,380c-14.33-8.27-37.49-8.27-51.72,0l-24.34,14.15-9.45,5.49,7.73,15.51,2.59-1.51,105.94,61.17-5.39,3.13L1120,419.68l4.74,9.51,8.17,4.72-4.51,2.62c1.45,2.91,2.9,5.83,4.35,8.73l22.59,13-5.39,3.14-12.82-7.4,20.47,41,70.93,11.72-26.67-15.4,5.39-3.13,36.44,21,12.63,2.09-11.74-6.77,5.4-3.14,21.49,12.41,16.43,2.72-50.62-29.23,5.4-3.13L1299.39,517l-2.05,1.19,25.27,4.18,9.45-5.49,24.34-14.15c14.23-8.27,14.16-21.68-.16-29.95" transform="translate(0 -145.8)"/><polyline class="cls-12" points="1221.74 273.25 1166.63 241.44 1161.24 244.57 1216.35 276.39 1221.74 273.25"/><polyline class="cls-12" points="1256.84 310.7 1150.9 249.53 1145.5 252.67 1251.45 313.84 1256.84 310.7"/><polyline class="cls-12" points="1329.94 352.91 1273.26 320.18 1267.87 323.32 1324.55 356.04 1329.94 352.91"/><polyline class="cls-12" points="1185.93 294.23 1129.24 261.5 1123.85 264.64 1180.53 297.36 1185.93 294.23"/><polyline class="cls-12" points="1208.7 307.38 1192.28 297.9 1186.89 301.03 1203.31 310.51 1208.7 307.38"/><polyline class="cls-12" points="1230.42 319.92 1214 310.44 1208.61 313.57 1225.03 323.05 1230.42 319.92"/><polyline class="cls-12" points="1309.72 364.66 1293.3 355.18 1287.91 358.31 1304.33 367.79 1309.72 364.66"/><polyline class="cls-12" points="1285.51 351.73 1237.83 324.2 1232.44 327.33 1280.12 354.86 1285.51 351.73"/><polyline class="cls-12" points="1163.5 269.83 1139.66 256.06 1134.27 259.2 1158.11 272.96 1163.5 269.83"/><polyline class="cls-12" points="1318.71 359.43 1280.57 337.41 1275.17 340.55 1313.32 362.57 1318.71 359.43"/><polyline class="cls-12" points="1273.15 333.13 1174.09 275.94 1168.7 279.08 1267.76 336.27 1273.15 333.13"/><path class="cls-12" d="M1226.28,474.78l-105.94-61.17-2.59,1.51,2.28,4.56,100.86,58.23,5.39-3.13" transform="translate(0 -145.8)"/><path class="cls-12" d="M1299.39,517l-56.68-32.72-5.4,3.13,50.62,29.23,9.41,1.55,2.05-1.19" transform="translate(0 -145.8)"/><path class="cls-12" d="M1155.37,458.3l-22.59-13,4.38,8.78,12.82,7.4,5.39-3.14" transform="translate(0 -145.8)"/><polyline class="cls-12" points="1178.15 325.66 1161.73 316.18 1156.34 319.31 1172.76 328.79 1178.15 325.66"/><polyline class="cls-12" points="1199.87 338.2 1183.45 328.72 1178.06 331.85 1194.48 341.33 1199.87 338.2"/><path class="cls-12" d="M1243.72,509.31l-36.44-21-5.39,3.13,26.67,15.4,15.16,2.5" transform="translate(0 -145.8)"/><path class="cls-12" d="M1132.94,433.91l-8.17-4.72,3.66,7.34,4.51-2.62" transform="translate(0 -145.8)"/><path class="cls-12" d="M1271.5,513.9,1250,501.49l-5.4,3.14,11.74,6.77,15.15,2.5" transform="translate(0 -145.8)"/><polyline class="cls-12" points="1242.59 351.42 1143.54 294.23 1138.14 297.36 1237.2 354.55 1242.59 351.42"/><path class="cls-7" d="M1193.15,605.58l-.07,0L966.82,474.91l226.27,130.64.06,0M966.63,474.8l.12.07-.12-.07m226.69,130.88,0,0,0,0M964.12,469.37c-.8,1.78-.18,3.79,2.47,5.4-2.43-1.49-3.26-3.53-2.47-5.4m380.21,56.57h0l-21.69-3.59-25.27-4.18-9.41-1.55-16.43-2.72-15.15-2.5-12.63-2.09-15.16-2.5-70.93-11.72,52.22,104.73c1.76,3.52-2.09,6.44-7,7.25a13,13,0,0,0,4.52-1.52l137-79.61" transform="translate(0 -145.8)"/><path class="cls-13" d="M1103.75,387l-137,79.61a6,6,0,0,0-2.64,2.72c-.79,1.87,0,3.91,2.47,5.4l0,0,.12.07,0,0h0l226.26,130.63.07,0,.12.07,0,0a15.26,15.26,0,0,0,9.5,1.39c4.94-.81,8.79-3.73,7-7.25l-52.22-104.73-20.47-41-4.38-8.78c-1.45-2.9-2.9-5.82-4.35-8.73l-3.66-7.34-4.74-9.51-2.28-4.56L1110,399.61q-3.13-6.27-6.26-12.55v0" transform="translate(0 -145.8)"/></g></g></svg>