<svg id="Capa_1" data-name="Capa 1" xmlns="http://www.w3.org/2000/svg" viewBox="0 0 471.2 436.7"><defs><style>.cls-1{fill:#3d8f7e;}</style></defs><title>download-pdf</title><path class="cls-1" d="M457.7,230.15a13.44,13.44,0,0,0-13.5,13.5v122.8A60.58,60.58,0,0,1,383.7,427H87.5A60.58,60.58,0,0,1,27,366.45V241.65a13.5,13.5,0,0,0-27,0v124.8A87.6,87.6,0,0,0,87.5,454H383.7a87.6,87.6,0,0,0,87.5-87.5V243.65A13.51,13.51,0,0,0,457.7,230.15Z" transform="translate(0 -17.25)"/><path class="cls-1" d="M226.1,346.75a13.59,13.59,0,0,0,9.5,4,13.17,13.17,0,0,0,9.5-4L330.9,261a13.51,13.51,0,1,0-19.1-19.1l-62.7,62.8V30.75a13.5,13.5,0,0,0-27,0v273.9l-62.8-62.8A13.51,13.51,0,1,0,140.2,261Z" transform="translate(0 -17.25)"/></svg>