<svg id="Capa_1" data-name="Capa 1" xmlns="http://www.w3.org/2000/svg" viewBox="0 0 59.67 59.66"><defs><style>.cls-1{fill:#3d8f7e;}</style></defs><title>generate-link</title><path class="cls-1" d="M55.87,3.8a13,13,0,0,0-18.38,0l-9.07,9.07A13,13,0,0,0,25,25a13.29,13.29,0,0,0-2.9-.33,12.89,12.89,0,0,0-9.19,3.79L3.8,37.49A13,13,0,0,0,22.18,55.87l9.07-9.07a13,13,0,0,0,3.46-12.09,13.29,13.29,0,0,0,2.9.33,12.89,12.89,0,0,0,9.19-3.79l9.07-9.07A13,13,0,0,0,55.87,3.8ZM28.42,44,19.35,53A9,9,0,0,1,6.63,40.32l9.07-9.07A9,9,0,0,1,26.84,30l-7.75,7.75a2,2,0,0,0,0,2.83,2,2,0,0,0,1.41.58,2,2,0,0,0,1.42-.58l7.75-7.75A9,9,0,0,1,28.42,44ZM53,19.35,44,28.42a9,9,0,0,1-11.14,1.25l7.75-7.75a2,2,0,0,0-2.83-2.83L30,26.84A9,9,0,0,1,31.25,15.7l9.07-9.07A9,9,0,0,1,53,19.35Z" transform="translate(0 -0.01)"/></svg>