<svg id="Layer_1" data-name="Layer 1" xmlns="http://www.w3.org/2000/svg" xmlns:xlink="http://www.w3.org/1999/xlink" viewBox="0 0 1577 1079"><defs><style>.cls-1{fill:none;}.cls-2{fill:#b5dcd8;}.cls-3{fill:#6ec6b8;}.cls-4{fill:#828282;opacity:0.2;}.cls-5{fill:#fff;}.cls-6{fill:#af6b68;}.cls-7{fill:#136354;}.cls-8{fill:#3d8f7e;}.cls-9{fill:#51a295;}.cls-10{fill:#d47f77;}.cls-11{isolation:isolate;}.cls-12{clip-path:url(#clip-path);}.cls-13{fill:#3f446b;}.cls-14{fill:#d15954;}.cls-15,.cls-20{fill:#f2bab2;}.cls-16{clip-path:url(#clip-path-2);}.cls-17{fill:#ac6476;}.cls-18{clip-path:url(#clip-path-3);}.cls-19{fill:#65bbb4;}.cls-20,.cls-21{opacity:0.7;}.cls-21{fill:#bf9eb3;}.cls-22{fill:#cba4b3;opacity:0.91;}</style><clipPath id="clip-path" transform="translate(-343 -0.5)"><polygon class="cls-1" points="1242.72 467.12 1243.44 211.37 1600.69 417.62 1599.97 673.37 1242.72 467.12"/></clipPath><clipPath id="clip-path-2" transform="translate(-343 -0.5)"><polygon class="cls-1" points="1005.92 602.63 1242.54 465.12 1605.69 674.79 1369.07 812.29 1005.92 602.63"/></clipPath><clipPath id="clip-path-3" transform="translate(-343 -0.5)"><polygon class="cls-1" points="1409.34 531.37 1409.41 505.16 1535.14 577.75 1535.07 603.97 1409.34 531.37"/></clipPath></defs><title>homePage-banner</title><path class="cls-2" d="M1920,1079.5H1402.6c-351.38-145.88-476.87-305.8-524.46-429-47.24-122.31-4.1-173.19-85.27-314C754,269.16,635.11,91.32,397.38,15.5c-22.06-7-41-11.86-54.38-15H1920Z" transform="translate(-343 -0.5)"/><path class="cls-3" d="M1920,1079.5H1650.63s-.05,0,0,0Q1743.23,891.73,1835.86,704c17.82-36.11,84.14-25.79,84.14,13.08Z" transform="translate(-343 -0.5)"/><path class="cls-3" d="M1390.21,623.38h213a0,0,0,0,1,0,0V886.62a0,0,0,0,1,0,0h-50.83a162.17,162.17,0,0,1-162.17-162.17V623.38A0,0,0,0,1,1390.21,623.38Z" transform="translate(1908.71 -742.21) rotate(90)"/><path class="cls-3" d="M1051.17,877.5h577.16v202h-320.1c-19.38-.34-104.89-3.55-176.53-59.16C1058.6,963.58,1052.13,892.78,1051.17,877.5Z" transform="translate(-343 -0.5)"/><path class="cls-3" d="M1141.74,531.16h0a0,0,0,0,1,0,0v474.68a79,79,0,0,1-79,79h-28a0,0,0,0,1,0,0V638.16A107,107,0,0,1,1141.74,531.16Z" transform="translate(1553.24 -280.74) rotate(90)"/><ellipse class="cls-4" cx="1394.23" cy="472.94" rx="65.98" ry="30.06"/><path class="cls-5" d="M1772.42,387.67c0-14.58-23.3-26.4-52.05-26.4s-52,11.82-52,26.4v82.11h.08a14.13,14.13,0,0,0-.08,1.46c0,14.58,23.3,26.39,52,26.39s52.05-11.81,52.05-26.39a14.13,14.13,0,0,0-.08-1.46h.08Z" transform="translate(-343 -0.5)"/><ellipse class="cls-6" cx="1377.45" cy="390.1" rx="46.27" ry="23.46"/><path class="cls-7" d="M1729.55,340.78c1.69,20-8.91,41.87-16.84,41.57-9.83-.38-15.69-34.85-16.83-41.57a153.84,153.84,0,0,1-.53-47.87C1699.68,295.42,1727.1,311.91,1729.55,340.78Z" transform="translate(-343 -0.5)"/><path class="cls-8" d="M1711.13,353.94c9.88,27.6,15.27,41.24,10,46.29-4.93,4.73-16.7,1.33-24-3.28-3.92-2.49-13.94-10.05-19.17-38.28-2.7-14.54-5.06-39.62,3.68-71.55a54.14,54.14,0,0,0,4.74,21.57c3.72,8.17,7.75,11.24,13.15,19.47C1704.73,336,1707,342.27,1711.13,353.94Z" transform="translate(-343 -0.5)"/><path class="cls-8" d="M1737.44,353.94c-19.19,29.73-37.24,37.21-34.52,44,2.88,7.15,27.14,8.83,43.67-2.4,16.05-10.91,19.27-30.24,22.07-47,2-12.25,4-35.21-5.28-63.82a173.52,173.52,0,0,1-11.51,41.74A175.45,175.45,0,0,1,1737.44,353.94Z" transform="translate(-343 -0.5)"/><path class="cls-8" d="M1749.54,337.63c3.18,26.9-12.1,57.65-23.41,57.34s-23.09-31.17-21.31-57.34c.78-11.59,4.38-22.28,11.57-43.67,4.21-12.5,8.21-22.63,11-29.46,2,7.83,5.12,19.35,9.47,33.14C1745.38,324.47,1748.36,327.65,1749.54,337.63Z" transform="translate(-343 -0.5)"/><path class="cls-9" d="M1754.8,365c-3,19.24-21.61,38.71-33.67,35.24-10.45-3-16.53-23.39-12.1-38.4,3-10.3,9.5-13,18.41-25.25a100.5,100.5,0,0,0,16.31-36.31c2.33,11,5.22,24.88,8.42,41C1755,355.51,1755.65,359.46,1754.8,365Z" transform="translate(-343 -0.5)"/><ellipse class="cls-4" cx="1277.17" cy="912.4" rx="67.49" ry="26.08"/><path class="cls-5" d="M1663.12,810.79c0-16.18-26.1-29.29-58.29-29.29s-58.29,13.11-58.29,29.29v91.13h.1a14.7,14.7,0,0,0-.1,1.63c0,16.18,26.1,29.29,58.29,29.29s58.29-13.11,58.29-29.29a14.7,14.7,0,0,0-.1-1.63h.1Z" transform="translate(-343 -0.5)"/><ellipse class="cls-10" cx="1261.92" cy="813.55" rx="51.81" ry="26.04"/><path class="cls-5" d="M1552.68,821.24v-6.49a36.8,36.8,0,0,0,0,72.57v-8.53a29.65,29.65,0,0,1,0-57.55Z" transform="translate(-343 -0.5)"/><path class="cls-4" d="M1511.82,710.4,1251.55,604.34A25.4,25.4,0,0,1,1238,592.12q-16.17-33.78-32.33-67.55c-9.05-18.91,13.4-37.68,36-30.11l408,136.41c23.4,7.82,23.19,35.55-.32,43.13L1534,711.2A32.73,32.73,0,0,1,1511.82,710.4Z" transform="translate(-343 -0.5)"/><g class="cls-11"><g class="cls-12"><path class="cls-13" d="M1262,468c-7.46-4.31-13.5-14.76-13.48-23.34l.58-203.49c0-8.59,6.1-12,13.56-7.73l318.83,184.07c7.47,4.31,13.5,14.76,13.48,23.34l-.58,203.5c0,8.58-6.1,12-13.57,7.73L1262,468m325.21-58.2L1257,219.18c-7.47-4.32-13.55-.86-13.57,7.72l-.64,224.68c0,8.58,6,19,13.49,23.35l330.19,190.63c7.47,4.32,13.55.86,13.57-7.73l.64-224.67c0-8.58-6-19-13.48-23.34" transform="translate(-343 -0.5)"/><path class="cls-5" d="M1418.34,476.73l0-8.15,133.26,76.94,0,8.15-133.25-76.94m1.46-15.47,0-8.14,104.9,60.56,0,8.15L1419.8,461.26m114.83,66.29,0-8.14,19.85,11.46,0,8.14-19.84-11.46M1419.85,445l0-8.14,59.54,34.37,0,8.15L1419.85,445m65.21,37.65,0-8.14,59.53,34.37,0,8.15-59.54-34.38m-65.17-52.31,0-8.15,133.26,76.94,0,8.14-133.26-76.93m.07-24.43,0-8.15,69.47,40.11,0,8.14L1420,405.88m-113-87,68.24,35,0,4.36,3.8,2.19-.3,104.51-3.79-2.19-68.22-39.38.29-104.52m274.46,98.62L1262.62,233.46c-7.46-4.31-13.54-.86-13.56,7.73l-.58,203.49c0,8.58,6,19,13.48,23.34L1580.78,652.1c7.47,4.31,13.55.85,13.57-7.73l.58-203.5c0-8.58-6-19-13.48-23.34" transform="translate(-343 -0.5)"/><path class="cls-14" d="M1375.23,353.94l-68.24-35,68.22,39.39,0-4.36" transform="translate(-343 -0.5)"/><path class="cls-10" d="M1342.41,380.81c1.3-1.24,3.37-1.34,5.7,0,3.13,1.81,6.46,8.44,7.08,12.27,1,6.06-4,10.66-12.84,9.16-8.85-8.73-13.76-19-12.74-23.93.64-3.1,4-5.87,7.12-4.06a15,15,0,0,1,5.68,6.56m36.6-20.32-3.8-2.19L1307,318.91l-.29,104.52,68.22,39.38,3.79,2.19.3-104.51" transform="translate(-343 -0.5)"/><path class="cls-5" d="M1348.11,380.81c-2.33-1.34-4.4-1.24-5.7,0a15,15,0,0,0-5.68-6.56c-3.13-1.81-6.48,1-7.12,4.06-1,4.91,3.89,15.2,12.74,23.93,8.88,1.5,13.82-3.1,12.84-9.16-.62-3.83-4-10.46-7.08-12.27" transform="translate(-343 -0.5)"/><polyline class="cls-15" points="1146.45 437.34 1076.98 397.23 1076.96 405.38 1146.42 445.48 1146.45 437.34"/><polyline class="cls-15" points="1210.17 498.6 1076.91 421.66 1076.89 429.81 1210.14 506.74 1210.17 498.6"/><polyline class="cls-15" points="1208.62 545.02 1075.36 468.08 1075.34 476.24 1208.59 553.17 1208.62 545.02"/><polyline class="cls-15" points="1136.41 470.7 1076.87 436.33 1076.85 444.47 1136.39 478.85 1136.41 470.7"/><polyline class="cls-15" points="1201.62 508.35 1142.09 473.98 1142.06 482.12 1201.6 516.5 1201.62 508.35"/><polyline class="cls-15" points="1211.5 530.37 1191.65 518.91 1191.63 527.05 1211.47 538.51 1211.5 530.37"/><polyline class="cls-15" points="1181.73 513.18 1076.83 452.62 1076.8 460.76 1181.71 521.33 1181.73 513.18"/></g></g><g class="cls-11"><g class="cls-16"><path class="cls-13" d="M1581.65,681a13.3,13.3,0,0,1-3.76,3.12L1383.64,797c-7.42,4.31-19.49,4.32-27,0l-330.2-190.64a11.72,11.72,0,0,1-5-5c-3.29,4.09-2,9.12,3.85,12.5l330.19,190.64c7.47,4.31,19.55,4.31,27,0L1576.75,691.6c5-2.88,6.59-7,4.9-10.62" transform="translate(-343 -0.5)"/><path class="cls-5" d="M1176.3,674.89c-3.75-2.16-3.77-5.68,0-7.84l35.8-20.81a14.9,14.9,0,0,1,13.53,0l61.56,35.53c3.75,2.17,3.77,5.68,0,7.84l-35.8,20.81a14.94,14.94,0,0,1-13.53,0l-61.56-35.54m-59-114L1137,549.43l19.85,11.46-19.72,11.45-19.85-11.46m27.12,15.66,19.71-11.46L1184,576.54,1164.27,588l-19.84-11.46m27.11,15.65,19.71-11.46,19.85,11.46-19.71,11.46-19.85-11.46m27.12,15.66,19.71-11.46,26.93,15.55,2.83,1.63,24.11,13.92L1299.17,643,1319,654.5,1299.3,666l-19.84-11.46L1252.52,639,1228.42,625l-2.83-1.64-26.93-15.54m107.91,62.3,19.71-11.46,19.85,11.46-19.71,11.46-19.85-11.46m27.11,15.66,19.72-11.46,19.84,11.46-19.71,11.45-19.85-11.45m27.11,15.65L1380.51,690l19.85,11.46-19.72,11.46-19.85-11.46m27.12,15.65,19.71-11.45,19.85,11.45-19.72,11.46-19.84-11.46M1415,732.76l19.71-11.45,19.85,11.46-19.71,11.45L1415,732.76M1142.66,546.15l19.72-11.46,19.85,11.46-19.72,11.46-19.85-11.46m27.08,15.64,19.72-11.46,19.85,11.46-19.72,11.46-19.85-11.46m27.08,15.63L1216.54,566l19.84,11.46-19.72,11.46-19.84-11.46m27.07,15.63,19.72-11.46,19.85,11.46-19.72,11.46-19.85-11.46M1251,608.69l19.72-11.46,19.85,11.45-19.73,11.46L1251,608.69m27.08,15.63,19.72-11.46,19.84,11.46-19.72,11.46-19.84-11.46M1305.13,640l19.72-11.46L1344.69,640,1325,651.41,1305.13,640m27.07,15.64,19.72-11.46,19.85,11.45L1352.05,667l-19.85-11.45m27.08,15.63L1379,659.76l19.84,11.45-19.72,11.47-19.84-11.46m27.08,15.63,19.72-11.46,19.84,11.46-19.72,11.46-19.84-11.46m27.07,15.63L1433.15,691l46.79,27-19.72,11.46-46.79-27M1168,531.42,1187.74,520l46.78,27-19.72,11.46-46.78-27m54,31.19,19.72-11.47,19.84,11.46-19.72,11.46L1222,562.61m27.08,15.63,19.72-11.46,19.84,11.45L1269,589.69l-19.84-11.45m27.07,15.63,19.73-11.46,19.84,11.46L1296,605.33l-19.85-11.46m27.08,15.63L1323,598l19.85,11.46L1323.11,621l-19.85-11.46m27.07,15.63,19.72-11.46,19.85,11.46-19.72,11.46-19.85-11.46m27.08,15.64,19.72-11.46L1397,640.77l-19.72,11.46-19.85-11.46m27.08,15.63,19.72-11.46,19.85,11.46-19.72,11.46-19.85-11.46M1411.56,672l19.73-11.46L1451.14,672l-19.73,11.46L1411.56,672m27.08,15.64,19.72-11.46,19.85,11.46-19.72,11.46-19.85-11.46m27.08,15.63,19.72-11.46,19.85,11.46-19.72,11.46-19.85-11.46M1193.37,516.69l19.71-11.46,19.85,11.46-19.71,11.46-19.85-11.46m26.94,15.55L1240,520.78l19.84,11.46-19.71,11.45-19.84-11.45m26.93,15.55L1267,536.33l19.84,11.46-19.71,11.46-19.85-11.46m26.93,15.55,19.72-11.46,19.85,11.46L1294,574.8l-19.85-11.46m26.94,15.55,19.71-11.46,19.85,11.46L1321,590.35l-19.85-11.46m26.94,15.55L1347.76,583l19.85,11.45-19.72,11.46-19.84-11.46M1355,610l19.71-11.46L1394.54,610l-19.71,11.46L1355,610m26.93,15.55,19.72-11.45,19.85,11.46L1401.76,637l-19.85-11.46m26.94,15.55,19.72-11.45,19.84,11.45-19.72,11.46-19.84-11.46m26.94,15.56,19.71-11.46,19.85,11.46-19.72,11.45-19.84-11.45m26.93,15.55,19.71-11.46,19.85,11.46-19.71,11.46-19.85-11.46m26.94,15.55,19.71-11.46,19.85,11.46-19.71,11.46-19.85-11.46m88.15-19.27-330.2-190.64c-7.47-4.31-19.54-4.31-27,0L1026.4,590.73c-5,2.88-6.58,6.95-4.9,10.62a11.72,11.72,0,0,0,5,5L1356.68,797c7.47,4.31,19.54,4.3,27,0L1577.89,684.1a13.3,13.3,0,0,0,3.76-3.12c3.3-4.09,2-9.12-3.84-12.5" transform="translate(-343 -0.5)"/><path class="cls-2" d="M1287.15,681.78l-61.56-35.53a14.9,14.9,0,0,0-13.53,0l-35.8,20.81c-3.73,2.16-3.71,5.68,0,7.84l61.56,35.54a14.94,14.94,0,0,0,13.53,0l35.8-20.81c3.73-2.16,3.71-5.67,0-7.84" transform="translate(-343 -0.5)"/><polyline class="cls-17" points="889.93 516.19 870.08 504.73 850.37 516.19 870.22 527.65 889.93 516.19"/><polyline class="cls-17" points="891.52 546.47 844.74 519.46 825.01 530.92 871.8 557.93 891.52 546.47"/><polyline class="cls-17" points="916.86 531.74 897.02 520.28 877.31 531.74 897.15 543.2 916.86 531.74"/><polyline class="cls-17" points="943.8 547.29 923.96 535.83 904.24 547.29 924.09 558.75 943.8 547.29"/><polyline class="cls-17" points="918.59 562.1 898.75 550.64 879.03 562.11 898.87 573.56 918.59 562.1"/><polyline class="cls-17" points="945.67 577.73 925.83 566.28 906.11 577.74 925.95 589.2 945.67 577.73"/><polyline class="cls-17" points="972.75 593.37 952.9 581.91 933.18 593.37 953.03 604.83 972.75 593.37"/><polyline class="cls-17" points="999.83 609 979.98 597.54 960.26 609 980.11 620.46 999.83 609"/><polyline class="cls-17" points="1026.9 624.63 1007.05 613.17 987.33 624.63 1007.18 636.09 1026.9 624.63"/><polyline class="cls-17" points="1053.98 640.27 1034.13 628.81 1014.41 640.27 1034.26 651.73 1053.98 640.27"/><polyline class="cls-17" points="1081.06 655.9 1061.21 644.44 1041.49 655.9 1061.34 667.36 1081.06 655.9"/><polyline class="cls-17" points="1108.13 671.53 1088.29 660.07 1068.57 671.53 1088.41 682.99 1108.13 671.53"/><polyline class="cls-17" points="1135.21 687.17 1115.36 675.71 1095.64 687.17 1115.49 698.63 1135.21 687.17"/><polyline class="cls-17" points="1162.29 702.8 1142.44 691.34 1122.72 702.8 1142.57 714.26 1162.29 702.8"/><polyline class="cls-17" points="868.1 591.69 848.25 580.23 828.54 591.69 848.39 603.15 868.1 591.69"/><polyline class="cls-17" points="976.02 654 956.17 642.54 929.24 626.99 905.13 613.07 902.3 611.44 875.37 595.89 855.65 607.35 882.59 622.89 885.42 624.53 909.52 638.45 936.46 654 956.3 665.46 976.02 654"/><polyline class="cls-17" points="1003.13 669.65 983.28 658.19 963.57 669.65 983.42 681.11 1003.13 669.65"/><polyline class="cls-17" points="1030.24 685.3 1010.4 673.85 990.68 685.3 1010.53 696.76 1030.24 685.3"/><polyline class="cls-17" points="1057.36 700.96 1037.51 689.5 1017.79 700.96 1037.64 712.42 1057.36 700.96"/><polyline class="cls-17" points="1084.47 716.61 1064.62 705.15 1044.91 716.61 1064.75 728.07 1084.47 716.61"/><polyline class="cls-17" points="1111.58 732.27 1091.73 720.81 1072.02 732.26 1091.87 743.72 1111.58 732.27"/><polyline class="cls-17" points="1136.94 717.53 1090.15 690.52 1070.43 701.98 1117.22 728.99 1136.94 717.53"/><polyline class="cls-17" points="1082.92 686.35 1063.08 674.89 1043.36 686.35 1063.2 697.81 1082.92 686.35"/><polyline class="cls-17" points="1055.85 670.72 1036 659.26 1016.28 670.72 1036.12 682.17 1055.85 670.72"/><polyline class="cls-17" points="1028.77 655.08 1008.92 643.63 989.2 655.09 1009.05 666.54 1028.77 655.08"/><polyline class="cls-17" points="1001.69 639.45 981.85 627.99 962.13 639.45 981.97 650.91 1001.69 639.45"/><polyline class="cls-17" points="974.61 623.82 954.77 612.36 935.05 623.82 954.89 635.28 974.61 623.82"/><polyline class="cls-17" points="947.54 608.18 927.69 596.73 907.97 608.19 927.82 619.64 947.54 608.18"/><polyline class="cls-17" points="920.46 592.55 900.62 581.09 880.89 592.55 900.74 604.01 920.46 592.55"/><polyline class="cls-17" points="893.38 576.92 873.54 565.46 853.82 576.92 873.66 588.38 893.38 576.92"/><polyline class="cls-17" points="866.31 561.29 846.46 549.83 826.74 561.29 846.59 572.75 866.31 561.29"/><polyline class="cls-17" points="839.23 545.65 819.38 534.19 799.66 545.65 819.51 557.11 839.23 545.65"/><polyline class="cls-17" points="840.99 576.04 821.14 564.58 801.43 576.04 821.27 587.5 840.99 576.04"/><polyline class="cls-17" points="813.88 560.39 794.03 548.93 774.32 560.38 794.16 571.85 813.88 560.39"/><polyline class="cls-17" points="970.74 562.84 950.89 551.38 931.17 562.84 951.02 574.3 970.74 562.84"/><polyline class="cls-17" points="997.67 578.39 977.83 566.93 958.11 578.39 977.96 589.85 997.67 578.39"/><polyline class="cls-17" points="1024.61 593.94 1004.76 582.49 985.05 593.94 1004.89 605.4 1024.61 593.94"/><polyline class="cls-17" points="1051.54 609.49 1031.69 598.03 1011.98 609.49 1031.83 620.95 1051.54 609.49"/><polyline class="cls-17" points="1078.48 625.05 1058.63 613.59 1038.91 625.04 1058.76 636.5 1078.48 625.05"/><polyline class="cls-17" points="1105.41 640.6 1085.57 629.14 1065.85 640.6 1085.69 652.05 1105.41 640.6"/><polyline class="cls-17" points="1132.35 656.15 1112.5 644.69 1092.79 656.15 1112.63 667.6 1132.35 656.15"/><polyline class="cls-17" points="1159.28 671.7 1139.43 660.24 1119.72 671.7 1139.57 683.16 1159.28 671.7"/><polyline class="cls-17" points="1186.22 687.25 1166.37 675.79 1146.65 687.25 1166.51 698.71 1186.22 687.25"/><polyline class="cls-13" points="1186.02 630.02 976.21 508.89 967.76 513.8 1177.57 634.93 1186.02 630.02"/></g></g><g class="cls-11"><g class="cls-18"><path class="cls-17" d="M1453.71,535.53a5.57,5.57,0,0,0-2.93-.93,2.17,2.17,0,0,0-1.87,1.12,6.06,6.06,0,0,0-.65,3.13l0,4.74a11.75,11.75,0,0,0,.63,3.86,10.39,10.39,0,0,0,1.86,3.27,10.9,10.9,0,0,0,2.93,2.45,4.66,4.66,0,0,0,2.54.76,2.45,2.45,0,0,0,1.84-1,5.61,5.61,0,0,0,1-2.63l-2.94-1.7a2.69,2.69,0,0,1-.5,1.19,1.12,1.12,0,0,1-.84.43,2.05,2.05,0,0,1-1.12-.33,4.69,4.69,0,0,1-1.35-1.15,5.23,5.23,0,0,1-.85-1.58,5.86,5.86,0,0,1-.29-1.9v-4.74a3.42,3.42,0,0,1,.3-1.56,1.05,1.05,0,0,1,.86-.6,2.42,2.42,0,0,1,1.36.41,3.77,3.77,0,0,1,1.09,1,5.85,5.85,0,0,1,.84,1.4,8,8,0,0,1,.51,1.76l2.94,1.7a15.79,15.79,0,0,0-1-3.81,12.16,12.16,0,0,0-1.84-3.1,9.47,9.47,0,0,0-2.54-2.17" transform="translate(-343 -0.5)"/><path class="cls-17" d="M1465.75,557a3.47,3.47,0,0,1-1.32-1.34,3.83,3.83,0,0,1-.46-1.89v-2c0-.69.15-1.14.47-1.33s.75-.14,1.32.19a3.43,3.43,0,0,1,1.33,1.34,3.73,3.73,0,0,1,.48,1.88v2.05c0,.69-.16,1.15-.48,1.34s-.76.14-1.34-.19m0-9.55a5,5,0,0,0-2.51-.83,1.83,1.83,0,0,0-1.59.91,5,5,0,0,0-.55,2.55v2a9.3,9.3,0,0,0,.53,3.22,8.76,8.76,0,0,0,1.58,2.75,9.12,9.12,0,0,0,2.51,2.08,4.89,4.89,0,0,0,2.51.82,1.81,1.81,0,0,0,1.58-.91,5,5,0,0,0,.56-2.57v-2a9.14,9.14,0,0,0-.54-3.19,8.67,8.67,0,0,0-1.57-2.73,9.23,9.23,0,0,0-2.51-2.07" transform="translate(-343 -0.5)"/><path class="cls-17" d="M1478.49,554.79a2.28,2.28,0,0,0-1.7-.4,1.81,1.81,0,0,0-1,.73v-1.68L1473,551.8l0,12.34,2.83,1.64,0-7.46c0-.61.15-1,.44-1.16s.69-.11,1.21.19a3.47,3.47,0,0,1,1.28,1.24,3.18,3.18,0,0,1,.45,1.66l0,7.48,2.84,1.63,0-7.49a9.2,9.2,0,0,0-.92-4.25,6.62,6.62,0,0,0-2.63-2.83" transform="translate(-343 -0.5)"/><path class="cls-17" d="M1490.23,556.61a5.26,5.26,0,0,0-2.88-.86,2.37,2.37,0,0,0-1.92,1.16,5.55,5.55,0,0,0-.69,3l0,5.1a10,10,0,0,0,.68,3.59,11.27,11.27,0,0,0,1.94,3.26,10.85,10.85,0,0,0,2.9,2.42,5.29,5.29,0,0,0,2.88.87A2.36,2.36,0,0,0,1495,574a5.53,5.53,0,0,0,.69-3v-3.37l-5.21-3v3.14l2.27,1.31v.28a2.87,2.87,0,0,1-.31,1.45,1.07,1.07,0,0,1-.89.54,2.44,2.44,0,0,1-1.34-.41,5.25,5.25,0,0,1-1.36-1.12,4.74,4.74,0,0,1-.91-1.48,4.35,4.35,0,0,1-.32-1.6l0-5.1a2.75,2.75,0,0,1,.31-1.44,1.15,1.15,0,0,1,.9-.57,2.39,2.39,0,0,1,1.33.39,4.71,4.71,0,0,1,1,.78,5.65,5.65,0,0,1,.84,1.09,4.45,4.45,0,0,1,.51,1.25l3.06,1.76a11.94,11.94,0,0,0-1-3.29,12.12,12.12,0,0,0-1.89-2.89,10,10,0,0,0-2.48-2.08" transform="translate(-343 -0.5)"/><path class="cls-17" d="M1504.08,569.56a2,2,0,0,0-1.56-.29,1.83,1.83,0,0,0-1,.7V568.3l-3-1.76,0,12.34,3,1.76,0-7a1.9,1.9,0,0,1,.48-1.5c.32-.23.76-.19,1.33.14a3.64,3.64,0,0,1,.7.52,2.89,2.89,0,0,1,.5.65l1.66-1.7a6.63,6.63,0,0,0-.94-1.27,6.05,6.05,0,0,0-1.21-.94" transform="translate(-343 -0.5)"/><path class="cls-17" d="M1511.22,583.77a4.19,4.19,0,0,1-1.23-1,1.82,1.82,0,0,1-.4-1.13c0-.4.11-.63.32-.7a1.33,1.33,0,0,1,1,.27l2.58,1.49v1.14c0,.42-.19.62-.56.61a4.52,4.52,0,0,1-1.68-.68m.4-9.85a6.43,6.43,0,0,0-2.34-.88,2.25,2.25,0,0,0-1.69.34l1.75,3a2,2,0,0,1,1.05,0,3.84,3.84,0,0,1,1.19.46,4.22,4.22,0,0,1,1.4,1.27,2.87,2.87,0,0,1,.49,1.61v.52l-2.6-1.5c-1.27-.73-2.23-1-2.87-.74s-1,1-1,2.19a6.37,6.37,0,0,0,.85,3.37,6.87,6.87,0,0,0,2.57,2.43,6.08,6.08,0,0,0,1.5.64,1.87,1.87,0,0,0,1.18,0,.72.72,0,0,0,.31-.23v1.16L1516,589l0-7.93a7.44,7.44,0,0,0-.51-2.77,8,8,0,0,0-1.52-2.45,9.6,9.6,0,0,0-2.4-1.93" transform="translate(-343 -0.5)"/><path class="cls-17" d="M1522,576.48l-2.83-1.63v3.58l-1.11-.64v2.78l1.11.64,0,6.36a5.75,5.75,0,0,0,.65,2.81,5.14,5.14,0,0,0,2.06,2l1.43.82v-3.14l-.7-.4a1.09,1.09,0,0,1-.45-.5,2,2,0,0,1-.15-.79v-5.54l1.31.76v-2.78l-1.31-.76v-3.59" transform="translate(-343 -0.5)"/><polyline class="cls-19" points="1191.92 582.09 1182.55 576.69 1182.55 579.83 1188.54 583.29 1182.32 590.93 1182.31 593.86 1192.08 599.5 1192.09 596.36 1185.7 592.67 1191.91 585.02 1191.92 582.09"/><path class="cls-20" d="M1432.26,518.35c-1.58-.91-3.17-1.14-4.38-.45l-1.35.77,3.87,6.71c2.39,4.16,2.38,8.65,0,10l-3.9,2.21,1.35,2.34a12.54,12.54,0,0,0,4.36,4.6c1.58.91,3.16,1.13,4.37.44l5.25-3c2.42-1.38,2.44-5.87,0-10l-5.22-9a12.48,12.48,0,0,0-4.35-4.59" transform="translate(-343 -0.5)"/><path class="cls-21" d="M1420.82,511.74c-1.58-.91-3.17-1.13-4.38-.45l-5.24,3c-2.42,1.38-2.44,5.87,0,10l5.21,9a12.61,12.61,0,0,0,4.36,4.6c1.58.91,3.16,1.13,4.37.44l1.36-.78-3.87-6.7c-2.4-4.15-2.38-8.64,0-10l3.9-2.22-1.35-2.33a12.62,12.62,0,0,0-4.36-4.6" transform="translate(-343 -0.5)"/><path class="cls-22" d="M1426.53,518.67l-3.9,2.22c-2.41,1.39-2.43,5.88,0,10l3.87,6.7,3.9-2.21c2.41-1.38,2.42-5.87,0-10l-3.87-6.71" transform="translate(-343 -0.5)"/></g></g></svg>