<svg id="Capa_1" data-name="Capa 1" xmlns="http://www.w3.org/2000/svg" viewBox="0 0 452.56 487.38"><defs><style>.cls-1{fill:#3d8f7e;}</style></defs><title>print</title><path class="cls-1" d="M400.1,100.92h-9.87V11.65A11.66,11.66,0,0,0,378.58,0H108.8A11.65,11.65,0,0,0,97.16,11.65v89.27H87.28a70,70,0,0,0-69.87,69.87V315.05a70,70,0,0,0,69.87,69.87h9.88v90.81a11.64,11.64,0,0,0,11.64,11.65H378.58a11.65,11.65,0,0,0,11.65-11.65V384.92h9.87A70,70,0,0,0,470,315.05V170.79A70,70,0,0,0,400.1,100.92ZM120.45,23.29H366.94v77.63H120.45Zm246.49,440.8H120.45V320.46H366.94Zm79.74-149a46.63,46.63,0,0,1-46.58,46.58h-9.87V320.46h25.19a11.65,11.65,0,0,0,0-23.29h-340a11.65,11.65,0,1,0,0,23.29H97.16v41.17H87.28A46.64,46.64,0,0,1,40.7,315.05V170.79a46.63,46.63,0,0,1,46.58-46.58H400.1a46.63,46.63,0,0,1,46.58,46.58V315.05Z" transform="translate(-17.41)"/><path class="cls-1" d="M378.58,170.65a15.89,15.89,0,1,0,15.9,15.89A15.89,15.89,0,0,0,378.58,170.65Z" transform="translate(-17.41)"/><path class="cls-1" d="M147.62,360.73H339.76a11.65,11.65,0,1,0,0-23.29H147.62a11.65,11.65,0,1,0,0,23.29Z" transform="translate(-17.41)"/><path class="cls-1" d="M147.62,403.93H339.76a11.65,11.65,0,1,0,0-23.29H147.62a11.65,11.65,0,1,0,0,23.29Z" transform="translate(-17.41)"/></svg>