<svg id="Capa_1" data-name="Capa 1" xmlns="http://www.w3.org/2000/svg" viewBox="0 0 486 485.9"><defs><style>.cls-1{fill:#3d8f7e;}</style></defs><title>save</title><path class="cls-1" d="M473.7,485.75a12.29,12.29,0,0,0,12.3-12.3V113.65a12.24,12.24,0,0,0-4.3-9.3L363,2.85a2.09,2.09,0,0,0-.6-.4c-.3-.2-.5-.4-.8-.6s-.7-.4-1.1-.6-.6-.3-.9-.4a6.47,6.47,0,0,0-1.3-.4,2.92,2.92,0,0,0-.9-.2,17.85,17.85,0,0,0-2.3-.2H12.3A12.29,12.29,0,0,0,0,12.35v461.3A12.29,12.29,0,0,0,12.3,486H473.7v-.2Zm-89.2-24.5h-283V277.15a6.59,6.59,0,0,1,6.6-6.6H377.9a6.59,6.59,0,0,1,6.6,6.6ZM161.8,24.45H342.7v127.8a1.37,1.37,0,0,1-1.4,1.4h-178a1.43,1.43,0,0,1-1.4-1.4V24.45Zm-137.2,0H137.4v127.8a25.91,25.91,0,0,0,25.9,25.9h178a25.91,25.91,0,0,0,25.9-25.9V38.75l94.2,80.6v341.9H409V277.15a31.13,31.13,0,0,0-31.1-31.1H108.1A31.13,31.13,0,0,0,77,277.15v184.2H24.6Z" transform="translate(0 -0.05)"/><path class="cls-1" d="M227.4,77.65h53.8v32.6a12.3,12.3,0,1,0,24.6,0V65.45a12.29,12.29,0,0,0-12.3-12.3H227.4a12.25,12.25,0,1,0,0,24.5Z" transform="translate(0 -0.05)"/><path class="cls-1" d="M304.5,322.85h-123a12.3,12.3,0,0,0,0,24.6h123a12.3,12.3,0,1,0,0-24.6Z" transform="translate(0 -0.05)"/><path class="cls-1" d="M304.5,387.75h-123a12.3,12.3,0,0,0,0,24.6h123a12.3,12.3,0,0,0,0-24.6Z" transform="translate(0 -0.05)"/></svg>