<svg id="Capa_1" data-name="Capa 1" xmlns="http://www.w3.org/2000/svg" viewBox="0 0 495 434.37"><defs><style>.cls-1{fill:#3d8f7e;}</style></defs><title>send</title><path class="cls-1" d="M164.71,456.69a8,8,0,0,0,12.51,6.6l55.09-37.61-67.6-32.22v63.23Z" transform="translate(0 -30.32)"/><path class="cls-1" d="M492.43,32.44A8,8,0,0,0,487,30.32a7.9,7.9,0,0,0-3.5.81L7.91,264.42a14.15,14.15,0,0,0,.15,25.47L133.4,349.62,384,143.63,164.46,364.41l156.14,74.4a14.14,14.14,0,0,0,19.24-7.55l154.6-390A8,8,0,0,0,492.43,32.44Z" transform="translate(0 -30.32)"/></svg>