<svg id="Layer_1" data-name="Layer 1" xmlns="http://www.w3.org/2000/svg" viewBox="0 0 512 512"><defs><style>.cls-1{fill:#3d8f7e;}</style></defs><title>upload</title><path class="cls-1" d="M256,0C114.61,0,0,114.61,0,256S114.61,512,256,512,512,397.39,512,256,397.39,0,256,0Zm0,486.4C128.76,486.4,25.6,383.25,25.6,256S128.76,25.6,256,25.6,486.4,128.76,486.4,256,383.24,486.4,256,486.4Z"/><path class="cls-1" d="M384,243.2H268.8V128a12.8,12.8,0,1,0-25.6,0V243.2H128a12.8,12.8,0,1,0,0,25.6H243.2V384a12.8,12.8,0,0,0,25.6,0V268.8H384a12.8,12.8,0,0,0,0-25.6Z"/></svg>